<svg width="96" height="90" viewBox="0 0 96 90" fill="none" xmlns="http://www.w3.org/2000/svg">
<path d="M69.48 46.4625L48 62.6625L26.56 45.8625C26.1555 45.5474 25.6888 45.31 25.1865 45.1639C24.6841 45.0178 24.156 44.966 23.6323 45.0112C23.1086 45.0565 22.5995 45.198 22.1341 45.4277C21.6687 45.6575 21.2562 45.9709 20.92 46.35C20.5838 46.7292 20.3306 47.1668 20.1748 47.6377C20.019 48.1087 19.9636 48.6038 20.0119 49.0948C20.0602 49.5858 20.2112 50.063 20.4562 50.4993C20.7012 50.9356 21.0355 51.3224 21.44 51.6375L45.44 70.3875C46.1557 70.9391 47.0535 71.2406 47.98 71.2406C48.9065 71.2406 49.8043 70.9391 50.52 70.3875L74.52 52.275C74.9309 51.9656 75.2725 51.583 75.5252 51.1494C75.7779 50.7158 75.9367 50.2396 75.9924 49.7482C76.0482 49.2569 75.9998 48.76 75.8501 48.2863C75.7004 47.8125 75.4523 47.3711 75.12 46.9875C74.787 46.6051 74.3768 46.288 73.9128 46.0545C73.4489 45.8211 72.9403 45.6758 72.4163 45.627C71.8923 45.5782 71.3632 45.6269 70.8593 45.7703C70.3554 45.9137 69.8867 46.1489 69.48 46.4625V46.4625Z" fill="#EEEEEE"/>
<path d="M45.44 44.1375C46.1557 44.6891 47.0535 44.9906 47.98 44.9906C48.9065 44.9906 49.8043 44.6891 50.52 44.1375L74.52 26.0251C74.9309 25.7156 75.2725 25.3331 75.5252 24.8994C75.7779 24.4658 75.9367 23.9896 75.9925 23.4982C76.0482 23.0069 75.9999 22.51 75.8501 22.0363C75.7004 21.5625 75.4523 21.1211 75.12 20.7376C74.7899 20.3523 74.3819 20.0321 73.9193 19.7952C73.4568 19.5583 72.9489 19.4094 72.4247 19.3571C71.9006 19.3049 71.3707 19.3502 70.8653 19.4906C70.36 19.6309 69.8892 19.8636 69.48 20.1751L48 36.4125L26.56 19.6126C25.7431 18.976 24.69 18.6698 23.6323 18.7612C22.5746 18.8527 21.599 19.3342 20.92 20.1001C20.241 20.8659 19.9144 21.8532 20.0119 22.8448C20.1094 23.8364 20.6231 24.751 21.44 25.3876L45.44 44.1375Z" fill="#EEEEEE"/>
</svg>
