<svg width="38" height="65" viewBox="0 0 38 65" fill="none" xmlns="http://www.w3.org/2000/svg">
<path d="M32.1588 65C30.6619 65.0034 29.2242 64.4008 28.159 63.3232L1.64328 36.4969C1.12273 35.9702 0.709423 35.3429 0.427333 34.6513C0.145243 33.9597 0 33.2176 0 32.4681C0 31.7186 0.145243 30.9765 0.427333 30.2849C0.709423 29.5933 1.12273 28.966 1.64328 28.4393L28.0519 1.7212C29.152 0.613514 30.6342 -0.00495089 32.1767 2.98522e-05C33.7192 0.0050106 35.1976 0.633035 36.2909 1.74781C37.3853 2.8716 38 4.39425 38 5.98175C38 7.56924 37.3854 9.09192 36.291 10.2157L16.6672 30.3214C16.0559 30.9493 15.7125 31.8 15.7125 32.6869C15.7125 33.5737 16.0559 34.4244 16.6672 35.0523L36.1846 55.0487C36.9816 55.8637 37.5246 56.9027 37.7447 58.0341C37.9648 59.1655 37.8521 60.3384 37.421 61.4041C36.9898 62.4699 36.2596 63.3805 35.3228 64.0207C34.386 64.6608 33.2849 65.0017 32.1588 65V65Z" fill="#00ADB5"/>
</svg>
