<svg width="127" height="198" viewBox="0 0 127 198" fill="none" xmlns="http://www.w3.org/2000/svg">
<path d="M116.719 0.688965H10.1912C7.48886 0.690776 4.89773 1.76549 2.9869 3.67703C1.07608 5.58857 0.00181032 8.18065 0 10.884V80.9297C0.00181032 83.633 1.07608 86.2252 2.9869 88.1367C4.89773 90.0482 7.48886 91.1229 10.1912 91.1247H116.719C119.421 91.1209 122.011 90.0456 123.921 88.1345C125.831 86.2234 126.906 83.6324 126.91 80.9297V10.884C126.906 8.18126 125.831 5.59034 123.921 3.67923C122.011 1.76811 119.421 0.692772 116.719 0.688965Z" fill="#E6E6E6"/>
<path d="M101.648 124.229H25.2622C23.7598 124.229 22.3188 124.826 21.2564 125.888C20.194 126.951 19.5972 128.393 19.5972 129.896C19.5972 131.399 20.194 132.84 21.2564 133.903C22.3188 134.966 23.7598 135.563 25.2622 135.563H101.648C103.151 135.563 104.592 134.966 105.654 133.903C106.716 132.84 107.313 131.399 107.313 129.896C107.313 128.393 106.716 126.951 105.654 125.888C104.592 124.826 103.151 124.229 101.648 124.229V124.229Z" fill="#E6E6E6"/>
<path d="M101.648 155.197H25.2624C23.9658 155.195 22.7076 155.638 21.6983 156.452C20.6889 157.266 19.9896 158.402 19.7172 159.671C19.4448 160.939 19.6158 162.262 20.2017 163.419C20.7875 164.576 21.7527 165.497 22.9359 166.028C23.6663 166.361 24.4597 166.533 25.2624 166.532H101.648C103.151 166.532 104.592 165.935 105.654 164.872C106.717 163.809 107.313 162.368 107.313 160.865C107.313 159.361 106.717 157.92 105.654 156.857C104.592 155.794 103.151 155.197 101.648 155.197Z" fill="#E6E6E6"/>
<path d="M101.648 186.166H25.2622C23.7598 186.166 22.3188 186.763 21.2564 187.825C20.194 188.888 19.5972 190.33 19.5972 191.833C19.5972 193.336 20.194 194.777 21.2564 195.84C22.3188 196.903 23.7598 197.5 25.2622 197.5H101.648C103.151 197.5 104.592 196.903 105.654 195.84C106.716 194.777 107.313 193.336 107.313 191.833C107.313 190.33 106.716 188.888 105.654 187.825C104.592 186.763 103.151 186.166 101.648 186.166V186.166Z" fill="#E6E6E6"/>
<path d="M79.9105 124.229H25.2623C23.7598 124.229 22.3188 124.826 21.2564 125.888C20.194 126.951 19.5972 128.393 19.5972 129.896C19.5972 131.399 20.194 132.84 21.2564 133.903C22.3188 134.966 23.7598 135.563 25.2623 135.563H78.7718C79.8544 135.119 80.796 134.389 81.4957 133.451C82.1954 132.513 82.6268 131.402 82.7438 130.238C82.8608 129.073 82.6589 127.899 82.1598 126.84C81.6607 125.782 80.8832 124.879 79.9105 124.229V124.229Z" fill="#00ADB5"/>
<path d="M54.6727 155.197H25.2624C23.9658 155.195 22.7076 155.638 21.6983 156.452C20.6889 157.266 19.9896 158.402 19.7172 159.671C19.4448 160.939 19.6158 162.262 20.2017 163.419C20.7876 164.576 21.7528 165.497 22.9359 166.028H49.9489C51.6594 166.027 53.2997 165.347 54.5093 164.137C55.7188 162.927 56.3986 161.286 56.3992 159.575C56.4083 157.948 55.79 156.38 54.6727 155.197V155.197Z" fill="#00ADB5"/>
<path d="M95.9407 186.166H25.2623C23.7598 186.166 22.3188 186.763 21.2564 187.825C20.194 188.888 19.5972 190.33 19.5972 191.833C19.5972 193.336 20.194 194.777 21.2564 195.84C22.3188 196.903 23.7598 197.5 25.2623 197.5H96.3962C97.3981 196.909 98.221 196.057 98.7775 195.035C99.3339 194.013 99.6031 192.859 99.5564 191.697C99.5097 190.534 99.1488 189.405 98.5121 188.431C97.8755 187.458 96.9868 186.674 95.9407 186.166V186.166Z" fill="#00ADB5"/>
</svg>
