<svg width="674" height="462" viewBox="0 0 674 462" fill="none" xmlns="http://www.w3.org/2000/svg">
<path d="M664.063 0H9.4098C6.91502 0.00276562 4.5232 0.994122 2.75912 2.75658C0.995036 4.51904 0.00276816 6.90867 0 9.40116V452.599C0.00276816 455.091 0.995036 457.481 2.75912 459.243C4.5232 461.006 6.91502 461.997 9.4098 462H664.063C666.558 461.997 668.95 461.006 670.714 459.243C672.478 457.481 673.47 455.091 673.473 452.599V9.40116C673.47 6.90867 672.478 4.51904 670.714 2.75658C668.95 0.994122 666.558 0.00276562 664.063 0V0ZM670.784 452.599C670.784 454.38 670.075 456.087 668.815 457.346C667.555 458.605 665.846 459.313 664.063 459.314H9.4098C7.62742 459.313 5.91822 458.605 4.65789 457.346C3.39756 456.087 2.68923 454.38 2.68851 452.599V9.40116C2.68923 7.62042 3.39756 5.91283 4.65789 4.65365C5.91822 3.39448 7.62742 2.68676 9.4098 2.68605H664.063C665.846 2.68676 667.555 3.39448 668.815 4.65365C670.075 5.91283 670.784 7.62042 670.784 9.40116V452.599Z" fill="#AAD8D3"/>
<path d="M672.129 37.6582H1.34448V40.3442H672.129V37.6582Z" fill="#AAD8D3"/>
<path d="M24.1966 28.2034C28.6511 28.2034 32.2621 24.5957 32.2621 20.1453C32.2621 15.6949 28.6511 12.0872 24.1966 12.0872C19.7421 12.0872 16.131 15.6949 16.131 20.1453C16.131 24.5957 19.7421 28.2034 24.1966 28.2034Z" fill="#AAD8D3"/>
<path d="M47.3851 28.2034C51.8396 28.2034 55.4507 24.5957 55.4507 20.1453C55.4507 15.6949 51.8396 12.0872 47.3851 12.0872C42.9307 12.0872 39.3196 15.6949 39.3196 20.1453C39.3196 24.5957 42.9307 28.2034 47.3851 28.2034Z" fill="#AAD8D3"/>
<path d="M70.5735 28.2034C75.028 28.2034 78.6391 24.5957 78.6391 20.1453C78.6391 15.6949 75.028 12.0872 70.5735 12.0872C66.1191 12.0872 62.508 15.6949 62.508 20.1453C62.508 24.5957 66.1191 28.2034 70.5735 28.2034Z" fill="#AAD8D3"/>
<path d="M184.163 92.6687H65.8687C63.3739 92.6715 60.9821 93.6628 59.218 95.4253C57.4539 97.1877 56.4616 99.5774 56.4589 102.07V220.256C56.4616 222.748 57.4539 225.138 59.218 226.9C60.9821 228.663 63.3739 229.654 65.8687 229.657H184.163C186.658 229.654 189.05 228.663 190.814 226.9C192.578 225.138 193.57 222.748 193.573 220.256V102.07C193.57 99.5774 192.578 97.1877 190.814 95.4253C189.05 93.6628 186.658 92.6715 184.163 92.6687V92.6687ZM190.885 220.256C190.884 222.037 190.175 223.744 188.915 225.003C187.655 226.263 185.946 226.97 184.163 226.971H65.8687C64.0863 226.97 62.3771 226.263 61.1168 225.003C59.8564 223.744 59.1481 222.037 59.1474 220.256V102.07C59.1481 100.289 59.8564 98.5815 61.1168 97.3224C62.3771 96.0632 64.0863 95.3555 65.8687 95.3547H184.163C185.946 95.3555 187.655 96.0632 188.915 97.3224C190.175 98.5815 190.884 100.289 190.885 102.07V220.256Z" fill="#AAD8D3"/>
<path d="M396.556 93.3403H278.261C275.945 93.3448 273.725 94.266 272.088 95.9022C270.45 97.5383 269.528 99.7561 269.524 102.07V220.256C269.528 222.57 270.45 224.788 272.088 226.424C273.725 228.06 275.945 228.981 278.261 228.986H396.556C398.872 228.981 401.092 228.06 402.729 226.424C404.367 224.788 405.289 222.57 405.294 220.256V102.07C405.289 99.7561 404.367 97.5383 402.729 95.9022C401.092 94.266 398.872 93.3448 396.556 93.3403V93.3403Z" fill="#00ADB5"/>
<path d="M608.949 93.3403H490.654C488.338 93.3448 486.118 94.266 484.481 95.9022C482.843 97.5383 481.921 99.7561 481.916 102.07V220.256C481.921 222.57 482.843 224.788 484.481 226.424C486.118 228.06 488.338 228.981 490.654 228.986H608.949C611.265 228.981 613.485 228.06 615.122 226.424C616.76 224.788 617.682 222.57 617.686 220.256V102.07C617.682 99.7561 616.76 97.5383 615.122 95.9022C613.485 94.266 611.265 93.3448 608.949 93.3403V93.3403Z" fill="#E6E6E6"/>
<path d="M184.163 270.619H65.8687C63.5527 270.624 61.3328 271.545 59.6951 273.181C58.0575 274.817 57.1355 277.035 57.131 279.349V397.535C57.1355 399.849 58.0575 402.066 59.6951 403.703C61.3328 405.339 63.5527 406.26 65.8687 406.265H184.163C186.479 406.26 188.699 405.339 190.337 403.703C191.975 402.066 192.897 399.849 192.901 397.535V279.349C192.897 277.035 191.975 274.817 190.337 273.181C188.699 271.545 186.479 270.624 184.163 270.619V270.619Z" fill="#E6E6E6"/>
<path d="M396.556 270.619H278.261C275.945 270.624 273.725 271.545 272.088 273.181C270.45 274.817 269.528 277.035 269.524 279.349V397.535C269.528 399.849 270.45 402.066 272.088 403.703C273.725 405.339 275.945 406.26 278.261 406.265H396.556C398.872 406.26 401.092 405.339 402.729 403.703C404.367 402.066 405.289 399.849 405.294 397.535V279.349C405.289 277.035 404.367 274.817 402.729 273.181C401.092 271.545 398.872 270.624 396.556 270.619V270.619Z" fill="#00ADB5"/>
<path d="M608.949 270.619H490.654C488.338 270.624 486.118 271.545 484.481 273.181C482.843 274.817 481.921 277.035 481.916 279.349V397.535C481.921 399.849 482.843 402.066 484.481 403.703C486.118 405.339 488.338 406.26 490.654 406.265H608.949C611.265 406.26 613.485 405.339 615.122 403.703C616.76 402.066 617.682 399.849 617.686 397.535V279.349C617.682 277.035 616.76 274.817 615.122 273.181C613.485 271.545 611.265 270.624 608.949 270.619V270.619Z" fill="#E6E6E6"/>
<path d="M155.262 290.093H36.967C34.6505 290.09 32.4295 289.17 30.7915 287.533C29.1534 285.897 28.232 283.678 28.2294 281.363V163.177C28.232 160.863 29.1534 158.644 30.7915 157.008C32.4296 155.371 34.6505 154.45 36.967 154.448H155.262C157.578 154.45 159.799 155.371 161.437 157.008C163.075 158.644 163.997 160.863 163.999 163.177V281.363C163.997 283.678 163.075 285.897 161.437 287.533C159.799 289.17 157.578 290.09 155.262 290.093V290.093Z" fill="#00ADB5"/>
</svg>
