<svg width="40" height="44" viewBox="0 0 40 44" fill="none" xmlns="http://www.w3.org/2000/svg">
<g clip-path="url(#clip0)">
<path d="M40 -0.190918L36.3559 39.5766L19.9755 44.0003L3.64024 39.5828L0 -0.190918H40Z" fill="#264DE4"/>
<path d="M33.2361 37.0442L36.3503 3.06104H20V40.6189L33.2361 37.0442Z" fill="#2965F1"/>
<path d="M8.34521 17.8125L8.79403 22.6905H20V17.8125H8.34521Z" fill="#EBEBEB"/>
<path d="M20 7.93896H19.9827H7.44336L7.89857 12.8171H20V7.93896Z" fill="#EBEBEB"/>
<path d="M20 35.5569V30.4816L19.978 30.4873L14.401 29.0204L14.0445 25.1299H11.3346H9.0177L9.71926 32.7892L19.9769 35.5631L20 35.5569Z" fill="#EBEBEB"/>
<path d="M26.1489 22.6904L25.5677 29.0169L19.9827 30.4853V35.5604L30.2485 32.7888L30.3238 31.9646L31.5005 19.1222L31.6227 17.8123L32.5267 7.93896H19.9827V12.8171H27.0389L26.5832 17.8123H19.9827V22.6904H26.1489Z" fill="white"/>
</g>
<defs>
<clipPath id="clip0">
<rect width="40" height="44" fill="white"/>
</clipPath>
</defs>
</svg>
