<?xml version="1.0" encoding="UTF-8" standalone="no"?>
<svg
   xmlns:dc="http://purl.org/dc/elements/1.1/"
   xmlns:cc="http://creativecommons.org/ns#"
   xmlns:rdf="http://www.w3.org/1999/02/22-rdf-syntax-ns#"
   xmlns:svg="http://www.w3.org/2000/svg"
   xmlns="http://www.w3.org/2000/svg"
   xmlns:sodipodi="http://sodipodi.sourceforge.net/DTD/sodipodi-0.dtd"
   xmlns:inkscape="http://www.inkscape.org/namespaces/inkscape"
   version="1.0"
   width="208pt"
   height="109pt"
   viewBox="0 0 208 109"
   preserveAspectRatio="xMidYMid meet"
   id="svg10"
   sodipodi:docname="Ejs.svg"
   inkscape:version="1.0.2-2 (e86c870879, 2021-01-15)">
  <metadata
     id="metadata16">
    <rdf:RDF>
      <cc:Work
         rdf:about="">
        <dc:format>image/svg+xml</dc:format>
        <dc:type
           rdf:resource="http://purl.org/dc/dcmitype/StillImage" />
        <dc:title></dc:title>
      </cc:Work>
    </rdf:RDF>
  </metadata>
  <defs
     id="defs14" />
  <sodipodi:namedview
     pagecolor="#ffffff"
     bordercolor="#666666"
     borderopacity="1"
     objecttolerance="10"
     gridtolerance="10"
     guidetolerance="10"
     inkscape:pageopacity="0"
     inkscape:pageshadow="2"
     inkscape:window-width="1682"
     inkscape:window-height="833"
     id="namedview12"
     showgrid="false"
     inkscape:zoom="2.7099867"
     inkscape:cx="116.41024"
     inkscape:cy="67.089871"
     inkscape:window-x="0"
     inkscape:window-y="0"
     inkscape:window-maximized="0"
     inkscape:current-layer="svg10"
     inkscape:document-rotation="0" />
  <g
     transform="matrix(0.08691905,0,0,-0.07440911,-29.668584,103.982)"
     fill="#000000"
     stroke="none"
     id="g8">
    <path
       d="m 2124,1227 c -28,-13 -66,-38 -86,-55 -44,-39 -84,-128 -93,-207 -8,-72 9,-183 35,-235 35,-69 132,-134 260,-175 114,-36 160,-77 160,-142 0,-43 -34,-89 -75,-103 -69,-23 -156,13 -252,103 l -52,49 -44,-69 c -72,-112 -71,-110 -47,-141 108,-137 308,-204 461,-155 74,24 158,107 185,183 28,82 26,237 -5,307 -41,92 -103,138 -279,204 -45,17 -96,42 -112,56 -26,21 -30,32 -30,75 0,42 5,54 30,80 29,28 35,30 89,26 60,-4 121,-30 182,-78 l 35,-29 48,91 48,90 -33,34 c -19,20 -67,52 -108,72 -67,33 -83,37 -170,40 -85,3 -102,0 -147,-21 z"
       id="path2" />
    <path
       d="M 480,660 V 90 h 320 320 V 205 320 H 895 670 v 115 115 h 195 195 V 660 770 H 865 670 v 115 115 l 218,2 217,3 v 110 110 l -312,3 -313,2 z"
       id="path4" />
    <path
       d="m 1320,1120 v -110 h 130 130 V 715 c 0,-329 -5,-362 -62,-391 -47,-24 -92,-11 -152,46 l -52,49 -47,-85 c -30,-54 -46,-92 -42,-104 17,-53 149,-134 237,-146 121,-17 242,68 288,201 24,69 24,75 28,508 l 3,437 h -230 -231 z"
       id="path6" />
  </g>
</svg>
