<?xml version="1.0" standalone="no"?>
<!DOCTYPE svg PUBLIC "-//W3C//DTD SVG 20010904//EN"
 "http://www.w3.org/TR/2001/REC-SVG-20010904/DTD/svg10.dtd">
<svg version="1.0" xmlns="http://www.w3.org/2000/svg"
 width="300.000000pt" height="135.000000pt" viewBox="0 0 300.000000 135.000000"
 preserveAspectRatio="xMidYMid meet">

<g transform="translate(0.000000,135.000000) scale(0.100000,-0.100000)"
fill="#000000" stroke="none">
<path d="M2124 1227 c-28 -13 -66 -38 -86 -55 -44 -39 -84 -128 -93 -207 -8
-72 9 -183 35 -235 35 -69 132 -134 260 -175 114 -36 160 -77 160 -142 0 -43
-34 -89 -75 -103 -69 -23 -156 13 -252 103 l-52 49 -44 -69 c-72 -112 -71
-110 -47 -141 108 -137 308 -204 461 -155 74 24 158 107 185 183 28 82 26 237
-5 307 -41 92 -103 138 -279 204 -45 17 -96 42 -112 56 -26 21 -30 32 -30 75
0 42 5 54 30 80 29 28 35 30 89 26 60 -4 121 -30 182 -78 l35 -29 48 91 48 90
-33 34 c-19 20 -67 52 -108 72 -67 33 -83 37 -170 40 -85 3 -102 0 -147 -21z"/>
<path d="M480 660 l0 -570 320 0 320 0 0 115 0 115 -225 0 -225 0 0 115 0 115
195 0 195 0 0 110 0 110 -195 0 -195 0 0 115 0 115 218 2 217 3 0 110 0 110
-312 3 -313 2 0 -570z"/>
<path d="M1320 1120 l0 -110 130 0 130 0 0 -295 c0 -329 -5 -362 -62 -391 -47
-24 -92 -11 -152 46 l-52 49 -47 -85 c-30 -54 -46 -92 -42 -104 17 -53 149
-134 237 -146 121 -17 242 68 288 201 24 69 24 75 28 508 l3 437 -230 0 -231
0 0 -110z"/>
</g>
</svg>
