<?xml version="1.0" encoding="UTF-8" standalone="no"?>
<svg
   xmlns:dc="http://purl.org/dc/elements/1.1/"
   xmlns:cc="http://creativecommons.org/ns#"
   xmlns:rdf="http://www.w3.org/1999/02/22-rdf-syntax-ns#"
   xmlns:svg="http://www.w3.org/2000/svg"
   xmlns="http://www.w3.org/2000/svg"
   xmlns:sodipodi="http://sodipodi.sourceforge.net/DTD/sodipodi-0.dtd"
   xmlns:inkscape="http://www.inkscape.org/namespaces/inkscape"
   version="1.0"
   width="621pt"
   height="621pt"
   viewBox="0 0 621 621"
   preserveAspectRatio="xMidYMid meet"
   id="svg8"
   sodipodi:docname="Express.svg"
   inkscape:version="1.0.2-2 (e86c870879, 2021-01-15)">
  <metadata
     id="metadata14">
    <rdf:RDF>
      <cc:Work
         rdf:about="">
        <dc:format>image/svg+xml</dc:format>
        <dc:type
           rdf:resource="http://purl.org/dc/dcmitype/StillImage" />
        <dc:title></dc:title>
      </cc:Work>
    </rdf:RDF>
  </metadata>
  <defs
     id="defs12" />
  <sodipodi:namedview
     pagecolor="#ffffff"
     bordercolor="#666666"
     borderopacity="1"
     objecttolerance="10"
     gridtolerance="10"
     guidetolerance="10"
     inkscape:pageopacity="0"
     inkscape:pageshadow="2"
     inkscape:window-width="1686"
     inkscape:window-height="859"
     id="namedview10"
     showgrid="false"
     inkscape:zoom="0.88801712"
     inkscape:cx="395.57778"
     inkscape:cy="633.10524"
     inkscape:window-x="14"
     inkscape:window-y="0"
     inkscape:window-maximized="0"
     inkscape:current-layer="svg8" />
  <g
     transform="matrix(0.10000001,0,0,-0.1,-109.67202,661.56746)"
     fill="#000000"
     stroke="none"
     id="g6"
     style="fill:#191919;fill-opacity:1">
    <path
       d="M 4040,6579 C 3435,6554 2878,6360 2400,6007 1967,5688 1631,5286 1406,4820 1207,4406 1120,4007 1120,3500 c 0,-509 87,-908 289,-1325 209,-430 509,-802 906,-1120 442,-354 972,-566 1568,-625 156,-16 508,-13 674,4 545,58 1032,249 1468,576 613,460 1036,1105 1190,1815 89,412 91,913 4,1334 -147,714 -583,1377 -1213,1843 -462,342 -1024,546 -1577,573 -63,3 -139,7 -169,8 -30,2 -129,0 -220,-4 z M 3290,4670 c 164,-41 312,-130 440,-266 197,-209 307,-504 327,-876 l 6,-118 h -863 -863 l 6,-112 c 4,-62 14,-140 23,-173 65,-239 231,-404 475,-471 90,-25 319,-26 409,-1 192,52 357,203 386,355 l 6,32 h 189 c 104,0 189,-3 189,-8 0,-17 -39,-142 -63,-200 -94,-228 -329,-423 -593,-491 -113,-30 -203,-41 -329,-41 -533,0 -909,284 -1040,785 -44,170 -58,302 -52,490 7,228 41,366 135,550 154,300 418,499 745,561 107,20 357,12 467,-16 z m 1709,-385 c 156,-228 288,-415 292,-415 4,0 139,185 299,411 161,226 298,413 304,415 6,2 114,3 239,2 l 227,-3 -410,-549 c -225,-303 -410,-551 -410,-553 0,-2 204,-288 453,-635 249,-348 457,-639 461,-645 6,-10 -46,-13 -246,-13 l -253,1 -329,489 c -181,270 -332,490 -335,490 -4,0 -156,-220 -337,-490 l -329,-490 h -237 c -131,0 -238,2 -238,4 0,3 200,285 445,628 244,343 443,628 441,634 -3,7 -187,260 -410,564 -223,303 -406,556 -406,561 0,5 102,9 248,9 h 247 z"
       id="path2"
       style="fill:#191919;fill-opacity:1" />
    <path
       d="m 2930,4364 c -106,-16 -156,-31 -230,-66 -117,-56 -220,-159 -279,-279 -41,-84 -81,-217 -81,-271 v -28 h 655 655 v 33 c 0,59 -38,185 -80,266 -98,188 -279,314 -490,340 -85,11 -103,12 -150,5 z"
       id="path4"
       style="fill:#191919;fill-opacity:1" />
  </g>
</svg>
