<svg id="svg" version="1.1" xmlns="http://www.w3.org/2000/svg" xmlns:xlink="http://www.w3.org/1999/xlink" width="400" height="400" viewBox="0, 0, 400,400"><g id="svgg"><path id="path0" d="M2.243 4.233 C 1.871 5.203,1.967 395.328,2.339 395.915 C 2.648 396.402,5.600 394.205,5.600 393.488 C 5.600 393.347,6.530 392.370,7.667 391.316 C 10.265 388.909,31.765 367.444,33.445 365.581 C 34.130 364.821,35.750 363.189,37.045 361.954 C 38.340 360.719,40.772 358.289,42.449 356.554 C 44.126 354.819,46.106 352.851,46.849 352.179 C 47.592 351.508,49.047 350.023,50.083 348.879 C 51.118 347.736,52.046 346.800,52.146 346.800 C 52.280 346.800,72.431 326.671,76.800 322.173 C 77.130 321.833,79.200 319.780,81.400 317.610 C 83.600 315.440,85.623 313.425,85.896 313.132 C 86.168 312.840,89.363 309.651,92.996 306.047 C 96.628 302.443,99.600 299.338,99.600 299.147 C 99.600 298.438,101.155 298.829,101.400 299.600 C 101.540 300.040,101.817 300.400,102.016 300.400 C 102.216 300.400,103.189 301.210,104.179 302.200 C 105.169 303.190,106.078 304.000,106.199 304.000 C 106.441 304.000,104.330 301.554,102.900 300.176 C 101.494 298.821,101.990 297.168,104.578 294.578 C 105.030 294.126,106.087 292.995,106.928 292.066 C 107.768 291.136,109.150 289.936,110.000 289.400 C 110.849 288.864,112.087 287.637,112.749 286.673 C 113.412 285.710,114.460 284.593,115.077 284.191 C 117.434 282.657,120.097 280.101,122.017 277.530 C 123.113 276.061,124.724 274.294,125.597 273.602 C 126.971 272.515,135.481 264.401,140.138 259.739 C 140.984 258.893,142.409 257.480,143.305 256.600 C 144.200 255.720,145.938 253.955,147.167 252.678 C 148.395 251.401,152.901 246.901,157.181 242.678 C 163.862 236.085,167.927 232.010,171.560 228.262 C 177.406 222.233,191.553 208.551,193.400 207.140 C 196.006 205.150,199.200 201.874,199.200 201.193 C 199.200 200.959,200.505 199.463,202.100 197.868 C 203.695 196.273,205.260 194.616,205.577 194.184 C 205.894 193.753,204.899 194.615,203.367 196.100 C 201.238 198.162,200.308 198.800,199.429 198.800 C 198.430 198.800,185.346 185.860,100.744 101.200 C 47.100 47.520,3.046 3.600,2.847 3.600 C 2.648 3.600,2.376 3.885,2.243 4.233 M374.662 24.944 C 363.256 36.415,353.894 45.890,353.858 46.000 C 353.821 46.110,354.441 45.525,355.234 44.700 C 356.028 43.875,356.840 43.200,357.039 43.200 C 357.425 43.199,357.492 43.135,363.540 36.900 C 365.727 34.645,367.672 32.800,367.861 32.800 C 368.292 32.800,370.800 30.095,370.800 29.630 C 370.800 29.441,371.256 29.172,371.814 29.032 C 372.372 28.892,372.989 28.378,373.186 27.889 C 373.861 26.215,380.732 19.635,381.858 19.585 C 382.295 19.565,384.224 16.786,384.581 15.659 C 384.731 15.186,385.020 14.800,385.224 14.800 C 385.427 14.800,386.090 14.222,386.697 13.515 C 387.304 12.808,388.416 11.683,389.169 11.015 C 389.922 10.347,391.767 8.596,393.269 7.125 C 394.771 5.653,396.038 4.573,396.084 4.725 C 396.193 5.080,396.188 4.501,396.567 72.400 C 396.745 104.190,396.960 130.275,397.045 130.367 C 397.130 130.458,397.200 102.063,397.200 67.267 L 397.200 4.000 396.300 4.044 C 395.672 4.074,389.143 10.380,374.662 24.944 M385.257 20.828 C 384.417 21.165,384.251 22.784,384.981 23.514 C 385.501 24.034,387.200 22.520,387.200 21.536 C 387.200 20.335,386.828 20.199,385.257 20.828 M393.126 29.445 C 392.334 30.238,392.583 37.493,393.460 39.174 C 393.930 40.075,393.995 39.506,393.998 34.500 C 393.999 31.365,393.949 28.800,393.886 28.800 C 393.823 28.800,393.481 29.090,393.126 29.445 M360.577 44.309 C 359.005 45.629,358.266 48.509,359.389 48.940 C 361.237 49.650,363.200 47.451,363.200 44.672 C 363.200 43.384,361.894 43.203,360.577 44.309 M351.144 48.300 C 349.993 49.689,349.506 50.400,349.704 50.400 C 349.814 50.400,350.386 49.770,350.973 49.000 C 352.063 47.571,352.195 47.032,351.144 48.300 M342.670 56.940 C 335.985 63.702,334.958 64.800,335.320 64.800 C 335.725 64.800,341.999 58.608,342.019 58.189 C 342.029 57.975,342.741 57.260,343.602 56.600 C 344.463 55.940,345.274 55.094,345.404 54.720 C 345.534 54.347,345.947 53.929,346.320 53.793 C 346.694 53.656,347.513 52.927,348.139 52.172 C 350.581 49.231,348.476 51.066,342.670 56.940 M333.242 66.360 C 332.559 66.999,332.000 67.654,332.000 67.817 C 332.000 68.073,334.784 65.566,334.796 65.300 C 334.808 65.010,334.362 65.315,333.242 66.360 M329.373 70.200 C 328.508 70.970,327.990 71.600,328.222 71.600 C 328.453 71.600,329.254 70.970,330.000 70.200 C 331.746 68.398,331.397 68.398,329.373 70.200 M324.500 74.984 C 322.905 76.563,321.600 77.979,321.600 78.130 C 321.600 78.282,322.979 77.054,324.664 75.401 C 326.350 73.748,327.655 72.332,327.564 72.255 C 327.474 72.177,326.095 73.406,324.500 74.984 M313.578 85.936 C 310.070 89.421,307.200 92.406,307.200 92.568 C 307.200 92.730,307.985 92.084,308.945 91.132 C 309.905 90.179,311.300 88.821,312.045 88.114 C 312.790 87.406,313.580 86.631,313.800 86.390 C 314.020 86.149,315.280 84.927,316.600 83.675 C 319.326 81.088,320.656 79.600,320.240 79.600 C 320.083 79.600,317.085 82.451,313.578 85.936 M297.600 101.869 L 296.200 103.313 297.481 102.396 C 298.185 101.891,298.854 101.236,298.968 100.939 C 299.256 100.188,299.180 100.240,297.600 101.869 M289.578 109.900 L 288.200 111.400 289.700 110.022 C 291.096 108.738,291.384 108.400,291.078 108.400 C 291.012 108.400,290.337 109.075,289.578 109.900 M284.965 114.513 C 283.846 115.661,282.789 116.870,282.618 117.200 C 282.446 117.530,283.407 116.671,284.753 115.292 C 286.885 113.107,287.491 112.364,287.100 112.413 C 287.045 112.419,286.084 113.364,284.965 114.513 M279.983 119.470 C 278.801 120.710,278.615 121.013,279.433 120.370 C 280.549 119.493,282.236 117.600,281.902 117.600 C 281.827 117.600,280.964 118.441,279.983 119.470 M269.201 130.198 C 268.686 130.748,268.339 131.264,268.432 131.346 C 268.524 131.428,269.019 130.978,269.530 130.347 C 270.676 128.935,270.474 128.844,269.201 130.198 M257.906 141.411 C 257.084 142.175,256.555 142.800,256.729 142.800 C 257.129 142.800,257.999 142.063,258.972 140.900 C 260.054 139.605,259.628 139.809,257.906 141.411 M254.593 144.807 C 253.737 145.683,253.173 146.400,253.339 146.400 C 253.783 146.400,256.560 143.627,256.338 143.405 C 256.234 143.300,255.448 143.931,254.593 144.807 M251.400 148.077 L 250.200 149.308 251.488 148.436 C 252.821 147.532,253.488 146.783,252.924 146.823 C 252.746 146.835,252.060 147.400,251.400 148.077 M231.556 167.900 C 229.962 169.385,228.014 171.302,227.229 172.159 C 226.443 173.017,225.107 174.367,224.261 175.159 C 223.414 175.952,222.535 176.949,222.306 177.376 C 222.077 177.803,223.374 176.633,225.187 174.776 C 227.001 172.919,229.939 170.005,231.717 168.300 C 233.495 166.595,234.838 165.200,234.703 165.200 C 234.567 165.200,233.151 166.415,231.556 167.900 M216.529 182.900 C 216.084 183.395,215.576 184.070,215.401 184.400 C 215.063 185.037,215.155 184.950,216.776 183.100 C 217.306 182.495,217.649 182.000,217.539 182.000 C 217.429 182.000,216.975 182.405,216.529 182.900 " stroke="none" fill="#d308cb" fill-rule="evenodd"></path><path id="path1" d="M393.600 6.840 C 392.390 8.096,390.680 9.688,389.800 10.377 C 388.920 11.066,387.750 12.249,387.200 13.006 C 386.650 13.764,385.894 14.486,385.520 14.612 C 385.147 14.738,384.721 15.218,384.575 15.679 C 384.222 16.790,382.291 19.566,381.858 19.585 C 380.732 19.635,373.861 26.215,373.186 27.889 C 372.989 28.378,372.372 28.892,371.814 29.032 C 371.256 29.172,370.800 29.441,370.800 29.630 C 370.800 30.095,368.292 32.800,367.861 32.800 C 367.672 32.800,365.727 34.645,363.540 36.900 C 357.514 43.112,357.424 43.199,357.064 43.200 C 356.880 43.200,355.951 43.965,355.000 44.900 C 354.050 45.835,353.031 46.804,352.736 47.054 C 352.441 47.304,351.120 48.728,349.800 50.220 C 346.735 53.682,346.415 54.000,345.998 54.000 C 345.809 54.000,345.544 54.315,345.410 54.700 C 345.277 55.085,344.463 55.940,343.602 56.600 C 342.741 57.260,342.029 57.981,342.019 58.202 C 342.008 58.422,340.558 59.952,338.796 61.602 C 337.035 63.251,334.020 66.174,332.096 68.098 C 330.173 70.022,328.375 71.597,328.100 71.598 C 327.825 71.599,327.600 71.810,327.600 72.067 C 327.600 72.324,325.935 74.200,323.900 76.236 C 320.440 79.697,314.702 85.480,313.800 86.414 C 313.580 86.641,312.784 87.406,312.032 88.114 C 310.736 89.331,300.146 99.611,299.494 100.284 C 296.036 103.851,279.762 120.135,278.769 121.021 C 278.016 121.693,276.084 123.583,274.476 125.221 C 272.868 126.860,271.248 128.483,270.876 128.829 C 270.504 129.175,269.734 129.985,269.165 130.629 C 268.596 131.273,266.128 133.731,263.680 136.091 C 261.232 138.452,258.937 140.830,258.579 141.376 C 258.221 141.922,257.585 142.478,257.164 142.611 C 256.744 142.745,256.398 143.067,256.395 143.327 C 256.392 143.587,255.038 145.060,253.387 146.600 C 251.735 148.140,246.923 152.884,242.692 157.143 C 233.909 165.984,218.307 181.594,215.518 184.331 C 213.483 186.329,204.976 194.879,202.300 197.617 C 200.595 199.361,199.200 200.975,199.200 201.203 C 199.200 201.876,195.988 205.163,193.400 207.140 C 191.561 208.545,177.211 222.422,171.623 228.200 C 168.297 231.639,163.838 236.109,157.181 242.678 C 152.901 246.901,148.395 251.401,147.167 252.678 C 145.938 253.955,144.200 255.720,143.305 256.600 C 142.409 257.480,140.984 258.893,140.138 259.739 C 135.481 264.401,126.971 272.515,125.597 273.602 C 124.724 274.294,123.113 276.061,122.017 277.530 C 120.097 280.101,117.434 282.657,115.077 284.191 C 114.460 284.593,113.412 285.710,112.749 286.673 C 112.087 287.637,110.849 288.864,110.000 289.400 C 109.150 289.936,107.768 291.136,106.928 292.066 C 106.087 292.995,105.030 294.126,104.578 294.578 C 101.860 297.298,101.496 298.758,103.131 300.393 C 103.754 301.015,104.879 302.280,105.631 303.204 C 106.652 304.457,129.366 327.638,132.085 330.200 C 132.318 330.420,147.291 345.375,165.357 363.434 C 183.424 381.492,198.628 396.494,199.144 396.770 C 200.224 397.348,199.417 398.121,233.800 363.587 C 244.360 352.980,253.429 343.919,253.953 343.451 C 254.478 342.983,255.648 341.840,256.553 340.911 C 257.459 339.983,260.151 337.283,262.536 334.911 C 264.921 332.540,273.291 324.131,281.136 316.225 C 288.981 308.319,295.930 301.329,296.579 300.691 C 297.450 299.835,298.045 299.575,298.863 299.694 C 299.799 299.832,300.005 299.689,300.209 298.760 C 300.341 298.157,301.294 296.871,302.325 295.903 C 303.356 294.935,304.911 293.271,305.781 292.205 C 306.650 291.140,314.868 282.783,324.042 273.634 C 333.217 264.485,341.392 256.115,342.209 255.034 C 343.027 253.953,344.259 252.619,344.948 252.071 C 345.636 251.522,348.647 248.627,351.638 245.637 C 354.629 242.647,358.769 238.565,360.838 236.566 C 362.907 234.568,366.856 230.608,369.614 227.766 C 372.372 224.925,375.342 221.955,376.214 221.166 C 377.086 220.378,379.886 217.588,382.436 214.966 C 384.985 212.345,388.562 208.940,390.384 207.400 C 392.206 205.860,394.279 204.060,394.992 203.400 C 395.704 202.740,396.548 202.020,396.866 201.800 C 397.481 201.375,397.477 199.416,396.552 62.600 C 396.374 36.200,396.222 12.412,396.214 9.737 C 396.197 3.880,396.319 4.016,393.600 6.840 M387.200 21.536 C 387.200 22.520,385.501 24.034,384.981 23.514 C 384.251 22.784,384.417 21.165,385.257 20.828 C 386.828 20.199,387.200 20.335,387.200 21.536 M393.998 34.500 C 393.995 39.506,393.930 40.075,393.460 39.174 C 392.143 36.651,392.465 28.800,393.886 28.800 C 393.949 28.800,393.999 31.365,393.998 34.500 M363.200 44.672 C 363.200 46.623,362.321 48.349,361.113 48.770 C 358.970 49.518,358.263 48.497,359.277 46.119 C 360.325 43.661,363.200 42.600,363.200 44.672 " stroke="none" fill="#5218fa" fill-rule="evenodd"></path><path id="path2" d="M396.600 202.096 C 396.160 202.342,395.332 203.006,394.761 203.572 C 394.190 204.137,392.226 205.860,390.397 207.400 C 388.568 208.940,384.985 212.345,382.436 214.966 C 379.886 217.588,377.086 220.378,376.214 221.166 C 375.342 221.955,372.372 224.925,369.614 227.766 C 366.856 230.608,362.907 234.568,360.838 236.566 C 358.769 238.565,354.629 242.647,351.638 245.637 C 348.647 248.627,345.636 251.522,344.948 252.071 C 344.259 252.619,343.027 253.953,342.209 255.034 C 341.392 256.115,333.217 264.485,324.042 273.634 C 314.868 282.783,306.650 291.140,305.781 292.205 C 304.911 293.271,303.356 294.935,302.325 295.903 C 299.065 298.963,299.149 299.285,304.661 304.854 C 343.508 344.099,395.868 396.000,396.615 396.000 C 398.031 396.000,398.002 398.094,397.960 298.450 C 397.919 200.145,397.936 201.350,396.600 202.096 " stroke="none" fill="#1388f6" fill-rule="evenodd"></path><path id="path3" d="M1.507 2.400 C 1.232 2.840,0.781 3.200,0.504 3.200 C 0.099 3.200,0.000 41.529,0.000 197.400 C 0.000 369.756,0.067 391.600,0.600 391.600 C 0.930 391.600,1.200 391.780,1.200 392.000 C 1.200 392.220,0.930 392.400,0.600 392.400 C 0.181 392.400,0.000 392.822,0.000 393.800 C 0.000 394.749,0.185 395.200,0.573 395.200 C 0.902 395.200,1.201 395.670,1.273 396.300 C 1.507 398.334,3.105 397.988,6.330 395.205 C 7.885 393.864,9.261 392.436,9.389 392.033 C 9.517 391.630,10.548 390.513,11.680 389.550 C 12.812 388.588,15.372 386.090,17.369 384.001 C 19.366 381.912,21.720 379.498,22.600 378.638 C 23.480 377.778,25.820 375.494,27.800 373.562 C 29.780 371.630,32.210 369.138,33.200 368.024 C 34.190 366.910,35.979 365.054,37.174 363.899 C 38.370 362.745,41.160 359.968,43.374 357.728 C 57.289 343.652,60.108 340.933,61.100 340.625 C 61.990 340.349,64.000 338.077,64.000 337.347 C 64.000 337.139,65.730 335.356,67.843 333.385 C 69.957 331.413,72.432 329.032,73.343 328.093 C 74.255 327.154,76.490 324.904,78.311 323.093 C 82.604 318.823,85.446 315.986,86.367 315.052 C 86.772 314.641,87.621 313.825,88.252 313.239 C 88.883 312.654,90.056 311.460,90.857 310.587 C 91.659 309.714,92.829 308.542,93.457 307.983 C 94.086 307.424,94.890 306.614,95.244 306.183 C 95.598 305.752,96.980 304.456,98.315 303.302 L 100.743 301.203 101.929 302.202 C 102.582 302.751,103.308 303.200,103.544 303.200 C 103.779 303.200,104.165 303.560,104.400 304.000 C 104.635 304.440,105.092 304.800,105.414 304.800 C 105.736 304.800,106.001 305.025,106.002 305.300 C 106.004 305.749,107.429 307.374,109.511 309.300 C 109.927 309.685,110.477 310.000,110.734 310.000 C 110.990 310.000,111.200 310.154,111.200 310.342 C 111.200 310.929,117.341 317.441,121.737 321.516 C 122.143 321.892,123.307 323.055,124.323 324.100 C 125.340 325.145,126.403 326.000,126.686 326.000 C 126.969 326.000,127.200 326.180,127.200 326.400 C 127.200 326.620,127.889 327.489,128.731 328.331 C 129.572 329.172,130.378 330.166,130.521 330.540 C 130.665 330.913,131.101 331.339,131.491 331.486 C 132.404 331.831,134.400 333.809,134.400 334.369 C 134.400 334.606,134.581 334.800,134.803 334.800 C 135.024 334.800,135.597 335.250,136.075 335.800 C 136.553 336.350,137.182 336.800,137.472 336.800 C 137.762 336.800,138.000 337.064,138.000 337.386 C 138.000 337.708,138.348 338.158,138.773 338.386 C 139.198 338.613,139.660 339.159,139.800 339.600 C 139.940 340.040,140.402 340.400,140.827 340.400 C 141.252 340.400,141.600 340.641,141.600 340.936 C 141.600 341.230,142.050 341.677,142.600 341.927 C 143.150 342.178,143.600 342.581,143.600 342.822 C 143.600 343.388,145.805 345.600,146.369 345.600 C 146.606 345.600,146.800 345.766,146.800 345.969 C 146.800 346.543,152.938 352.801,153.500 352.800 C 153.775 352.800,154.000 352.947,154.000 353.127 C 154.000 353.557,156.534 356.400,156.917 356.400 C 157.080 356.400,157.650 356.895,158.184 357.500 C 158.718 358.105,159.616 359.121,160.178 359.758 C 160.740 360.396,161.200 361.071,161.200 361.258 C 161.200 361.446,161.464 361.600,161.786 361.600 C 162.108 361.600,162.558 361.948,162.786 362.373 C 163.013 362.798,163.559 363.260,164.000 363.400 C 164.440 363.540,164.800 363.900,164.800 364.200 C 164.800 364.500,165.160 364.860,165.600 365.000 C 166.040 365.140,166.400 365.428,166.400 365.640 C 166.400 366.158,169.064 368.800,169.587 368.800 C 169.814 368.800,170.000 368.947,170.000 369.127 C 170.000 369.677,172.588 372.400,173.110 372.400 C 173.380 372.400,173.600 372.583,173.600 372.806 C 173.600 373.327,181.483 381.200,182.006 381.200 C 182.223 381.200,182.400 381.386,182.400 381.613 C 182.400 382.151,185.049 384.800,185.587 384.800 C 185.814 384.800,186.000 384.987,186.000 385.216 C 186.000 385.444,186.855 386.488,187.900 387.535 C 188.945 388.582,190.714 390.420,191.831 391.619 C 199.575 399.935,199.061 399.873,205.578 393.279 C 208.560 390.262,211.466 387.431,212.036 386.989 C 212.607 386.547,213.288 385.783,213.551 385.292 C 213.813 384.802,214.195 384.400,214.399 384.400 C 214.603 384.400,216.892 382.249,219.485 379.619 C 222.078 376.990,224.431 374.605,224.714 374.319 C 224.996 374.034,225.806 373.188,226.514 372.440 C 227.221 371.692,228.022 370.882,228.293 370.640 C 230.275 368.871,233.200 365.997,233.200 365.818 C 233.200 365.469,237.533 361.200,237.887 361.200 C 238.064 361.200,238.657 360.633,239.204 359.940 C 240.511 358.287,243.564 355.270,244.700 354.510 C 245.195 354.179,245.604 353.704,245.609 353.454 C 245.613 353.204,246.265 352.460,247.056 351.800 C 248.610 350.504,268.800 330.458,268.800 330.211 C 268.800 330.020,271.214 327.600,271.405 327.600 C 271.608 327.600,276.000 323.183,276.000 322.978 C 276.000 322.885,277.005 321.862,278.233 320.704 C 281.008 318.089,282.592 316.512,284.431 314.537 C 285.218 313.692,286.478 312.435,287.231 311.745 C 287.984 311.055,288.794 310.245,289.030 309.945 C 289.267 309.645,290.388 308.590,291.521 307.600 C 292.655 306.610,293.586 305.596,293.591 305.346 C 293.596 305.096,294.005 304.614,294.500 304.275 C 294.995 303.936,296.085 303.015,296.922 302.229 C 298.684 300.575,299.699 300.438,300.850 301.700 C 306.492 307.884,396.172 397.228,396.926 397.417 C 397.684 397.607,397.975 397.491,398.134 396.934 C 398.639 395.162,398.905 2.808,398.401 2.201 C 397.589 1.223,396.598 1.502,394.848 3.200 C 393.941 4.080,393.097 4.800,392.971 4.800 C 392.846 4.800,391.901 5.733,390.872 6.873 C 388.182 9.850,386.415 11.600,386.097 11.600 C 385.742 11.600,383.200 14.448,383.200 14.846 C 383.200 15.011,382.854 15.256,382.431 15.390 C 381.326 15.741,378.566 18.441,378.231 19.500 C 378.074 19.995,377.768 20.400,377.550 20.400 C 377.020 20.400,367.200 30.253,367.200 30.784 C 367.200 31.013,366.992 31.200,366.738 31.200 C 366.483 31.200,364.711 32.820,362.800 34.800 C 360.889 36.780,359.155 38.400,358.949 38.400 C 358.742 38.400,358.247 38.950,357.850 39.623 C 356.866 41.288,354.504 43.600,353.787 43.600 C 353.428 43.600,353.200 43.988,353.200 44.600 C 353.200 45.189,352.971 45.600,352.642 45.600 C 351.965 45.600,349.600 47.746,349.600 48.360 C 349.600 48.602,349.393 48.800,349.139 48.800 C 348.886 48.800,346.920 50.645,344.770 52.900 C 342.620 55.155,340.566 57.270,340.204 57.600 C 336.992 60.532,324.400 73.273,324.400 73.591 C 324.400 73.816,324.158 74.000,323.863 74.000 C 323.304 74.000,317.600 79.893,317.600 80.471 C 317.600 80.652,317.370 80.800,317.089 80.800 C 316.555 80.800,314.643 82.798,313.966 84.064 C 313.749 84.469,313.417 84.800,313.228 84.800 C 312.715 84.800,310.590 86.896,310.288 87.700 C 310.143 88.085,309.850 88.400,309.636 88.400 C 309.423 88.400,306.762 90.899,303.724 93.954 C 300.686 97.009,297.947 99.754,297.638 100.054 C 297.329 100.354,295.709 101.952,294.038 103.604 C 292.367 105.256,290.441 107.067,289.758 107.629 C 289.075 108.191,288.175 109.177,287.758 109.822 C 287.341 110.466,286.397 111.534,285.660 112.196 C 284.033 113.658,271.583 126.044,270.945 126.836 C 270.695 127.146,269.840 127.926,269.045 128.570 C 268.250 129.213,267.600 129.978,267.600 130.270 C 267.600 130.561,267.461 130.800,267.292 130.800 C 267.122 130.800,265.277 132.413,263.192 134.385 C 257.954 139.337,257.228 140.098,256.970 140.900 C 256.847 141.285,256.500 141.600,256.200 141.600 C 255.900 141.600,255.540 141.960,255.400 142.400 C 255.260 142.840,254.955 143.200,254.722 143.200 C 254.489 143.200,252.827 144.685,251.029 146.500 C 249.231 148.315,247.229 150.284,246.580 150.876 C 245.931 151.468,244.500 152.972,243.400 154.218 C 242.300 155.465,241.166 156.691,240.881 156.943 C 240.595 157.194,240.145 157.634,239.881 157.919 C 239.616 158.205,239.158 158.655,238.862 158.919 C 237.567 160.077,234.090 163.573,232.890 164.925 C 232.169 165.736,231.476 166.400,231.350 166.400 C 231.016 166.400,228.800 168.829,228.800 169.196 C 228.800 169.368,228.305 169.830,227.700 170.224 C 226.582 170.952,215.592 181.878,213.400 184.441 C 212.740 185.212,211.390 186.464,210.400 187.222 C 209.410 187.980,208.457 188.823,208.282 189.096 C 208.107 189.369,206.229 191.306,204.108 193.399 C 199.735 197.716,199.636 197.739,196.967 195.047 C 196.069 194.141,194.269 192.372,192.967 191.116 C 191.665 189.860,190.181 188.285,189.670 187.616 C 189.158 186.947,188.567 186.400,188.358 186.400 C 188.148 186.400,183.403 181.765,177.815 176.100 C 172.226 170.435,167.507 165.661,167.327 165.491 C 166.864 165.053,153.926 152.135,153.200 151.386 C 152.254 150.410,148.597 146.739,147.037 145.200 C 146.257 144.430,144.669 142.843,143.509 141.674 C 142.349 140.505,140.717 138.885,139.882 138.074 C 139.046 137.263,134.507 132.730,129.794 128.000 C 125.081 123.270,121.038 119.220,120.809 119.000 C 120.581 118.780,119.811 117.995,119.097 117.256 C 118.384 116.517,117.275 115.437,116.634 114.856 C 115.993 114.275,114.553 112.831,113.434 111.646 C 112.315 110.461,110.714 108.841,109.877 108.046 C 109.039 107.251,107.689 105.913,106.877 105.073 C 106.064 104.234,104.868 103.064,104.217 102.473 C 102.774 101.163,100.476 98.851,97.754 95.967 C 96.629 94.775,94.694 92.875,93.454 91.745 C 92.214 90.614,91.200 89.501,91.200 89.272 C 91.200 89.042,90.840 88.740,90.400 88.600 C 89.960 88.460,89.600 88.128,89.600 87.862 C 89.600 87.350,87.575 85.429,86.336 84.766 C 85.931 84.549,85.600 84.152,85.600 83.884 C 85.600 83.615,84.239 82.137,82.575 80.598 C 77.143 75.574,75.200 73.641,75.200 73.263 C 75.200 73.059,74.785 72.620,74.277 72.287 C 73.184 71.571,64.962 63.349,62.427 60.437 C 61.451 59.317,60.461 58.396,60.227 58.391 C 59.992 58.387,59.260 57.735,58.600 56.943 C 57.940 56.152,56.004 54.131,54.297 52.452 C 50.701 48.915,32.908 31.098,31.960 30.084 C 31.609 29.708,30.394 28.543,29.260 27.495 C 28.127 26.447,27.198 25.457,27.196 25.295 C 27.194 25.133,26.264 24.190,25.129 23.200 C 23.994 22.210,22.060 20.343,20.833 19.052 C 19.605 17.761,18.365 16.501,18.077 16.252 C 17.209 15.503,14.270 12.584,13.144 11.354 C 12.563 10.719,11.438 9.600,10.644 8.866 C 9.850 8.133,9.200 7.380,9.200 7.193 C 9.200 7.007,8.840 6.740,8.400 6.600 C 7.960 6.460,7.600 6.148,7.600 5.907 C 7.600 5.202,3.529 1.600,2.733 1.600 C 2.333 1.600,1.782 1.960,1.507 2.400 M100.744 101.200 C 187.456 187.971,198.412 198.800,199.485 198.800 C 200.539 198.800,202.392 197.093,214.046 185.387 C 221.391 178.010,227.708 171.665,228.085 171.287 C 235.396 163.953,257.009 142.385,259.347 140.090 C 261.078 138.390,292.452 107.075,329.067 70.500 C 371.654 27.959,395.919 4.000,396.414 4.000 C 397.176 4.000,397.190 5.445,397.394 102.100 C 397.507 156.055,397.698 243.490,397.818 296.400 C 398.049 398.126,398.074 396.000,396.640 396.000 C 395.862 396.000,347.241 347.820,304.425 304.620 C 301.217 301.383,299.153 299.600,298.614 299.600 C 297.602 299.600,298.608 298.643,281.137 316.237 C 273.292 324.136,264.922 332.540,262.537 334.911 C 260.151 337.283,257.459 339.983,256.553 340.911 C 255.648 341.840,254.478 342.985,253.953 343.457 C 253.429 343.928,241.128 356.213,226.617 370.757 C 204.743 392.682,200.095 397.159,199.417 396.950 C 198.968 396.812,183.720 381.827,165.533 363.650 C 147.347 345.472,132.227 330.368,131.933 330.085 C 131.640 329.802,124.856 323.007,116.858 314.985 C 108.860 306.963,102.167 300.400,101.985 300.400 C 101.803 300.400,101.540 300.040,101.400 299.600 C 101.155 298.829,99.600 298.438,99.600 299.147 C 99.600 299.338,96.628 302.443,92.996 306.047 C 89.363 309.651,86.168 312.840,85.896 313.132 C 85.623 313.425,83.600 315.440,81.400 317.610 C 79.200 319.780,77.130 321.833,76.800 322.173 C 72.431 326.671,52.280 346.800,52.146 346.800 C 52.046 346.800,51.118 347.736,50.083 348.879 C 49.047 350.023,47.592 351.508,46.849 352.179 C 46.106 352.851,44.126 354.819,42.449 356.554 C 40.772 358.289,38.340 360.719,37.045 361.954 C 35.750 363.189,34.130 364.821,33.445 365.581 C 31.765 367.444,10.265 388.909,7.667 391.316 C 6.530 392.370,5.600 393.347,5.600 393.488 C 5.600 394.205,2.648 396.402,2.339 395.915 C 1.967 395.328,1.871 5.203,2.243 4.233 C 2.376 3.885,2.648 3.600,2.847 3.600 C 3.046 3.600,47.100 47.520,100.744 101.200 " stroke="none" fill="#f7a0ea" fill-rule="evenodd"></path></g></svg>