<?xml version="1.0" standalone="no"?>
<!DOCTYPE svg PUBLIC "-//W3C//DTD SVG 20010904//EN"
 "http://www.w3.org/TR/2001/REC-SVG-20010904/DTD/svg10.dtd">
<svg version="1.0" xmlns="http://www.w3.org/2000/svg"
 width="147.000000pt" height="160.000000pt" viewBox="0 0 147.000000 160.000000"
 preserveAspectRatio="xMidYMid meet">

<g transform="translate(0.000000,160.000000) scale(0.100000,-0.100000)"
fill="#000000" stroke="none">
<path d="M695 1589 c-92 -13 -171 -58 -262 -147 -122 -120 -159 -198 -184
-389 -6 -51 -17 -97 -23 -102 -6 -4 -27 -14 -47 -20 -35 -11 -93 -61 -71 -61
6 0 14 5 17 10 10 16 28 12 21 -5 -6 -18 -2 -19 26 -4 41 22 43 -6 4 -68 -20
-32 -44 -82 -52 -110 -9 -29 -18 -53 -21 -53 -3 0 -3 32 0 70 3 39 4 70 1 70
-3 0 -13 -17 -22 -37 l-16 -38 -6 45 -6 45 -23 -49 c-64 -136 -21 -306 82
-323 l37 -6 0 81 c0 98 26 189 71 244 31 39 32 43 22 93 -5 28 -6 64 -1 80 8
32 89 119 130 141 51 26 98 13 98 -28 0 -26 9 -23 52 19 34 34 44 37 103 41
58 4 73 1 130 -27 107 -53 175 -159 179 -278 1 -47 -3 -55 -34 -88 -71 -74
-114 -87 -231 -71 -46 7 -58 5 -73 -9 -9 -10 -15 -24 -12 -32 3 -7 8 -51 11
-96 5 -76 5 -80 -8 -52 l-14 30 -8 -30 c-4 -16 -14 -57 -22 -90 -29 -118 -98
-217 -161 -231 -15 -3 -38 -10 -52 -15 -51 -19 114 1 185 22 81 24 124 18 188
-25 30 -21 38 -22 48 -10 28 34 124 -2 164 -62 26 -40 35 -28 35 49 0 56 5 81
23 112 26 44 39 47 117 25 56 -16 106 -4 174 42 102 67 160 192 161 343 0 89
-14 139 -56 196 -9 12 -4 35 26 109 30 76 39 112 43 182 4 80 3 92 -23 143
-38 78 -119 161 -256 265 -92 69 -128 90 -168 99 -60 13 -208 13 -296 0z m350
-79 c43 -16 131 -99 160 -151 29 -52 30 -60 33 -199 3 -104 -1 -166 -12 -219
-9 -41 -17 -76 -20 -78 -2 -2 -15 -1 -28 2 -23 6 -25 12 -36 121 -15 151 -36
218 -88 271 -48 51 -64 54 -64 13 0 -16 -5 -30 -12 -30 -6 0 -37 20 -67 44
-94 73 -182 107 -222 85 l-21 -11 24 -16 c30 -21 45 -40 57 -76 10 -27 10 -28
-17 -23 -15 3 -47 12 -72 20 -30 10 -53 11 -69 5 -23 -8 -23 -9 -5 -22 17 -13
15 -15 -25 -26 -24 -6 -46 -9 -49 -6 -10 11 27 75 68 120 53 58 132 118 196
150 77 38 202 50 269 26z m95 -720 l23 -20 -33 -52 c-18 -29 -43 -84 -55 -123
l-22 -70 -7 43 c-7 37 -11 42 -28 36 -20 -6 -20 -3 -14 36 7 47 27 89 63 138
28 37 41 40 73 12z m87 -51 c9 -9 1 -24 -28 -61 -21 -27 -46 -74 -55 -104 -16
-56 -34 -72 -34 -30 0 38 38 151 61 180 22 28 39 32 56 15z"/>
<path d="M346 930 c-18 -22 -26 -43 -26 -71 0 -52 17 -50 30 4 6 23 15 53 21
66 15 35 5 36 -25 1z"/>
<path d="M653 935 c-12 -8 -29 -38 -39 -67 -16 -49 -16 -52 2 -65 18 -13 21
-9 51 54 18 37 32 74 33 81 0 16 -21 15 -47 -3z"/>
<path d="M377 833 c-13 -12 -7 -23 13 -23 11 0 20 7 20 15 0 15 -21 21 -33 8z"/>
<path d="M470 811 c0 -12 57 -34 69 -27 6 4 8 13 4 21 -6 16 -73 22 -73 6z"/>
<path d="M315 753 c-35 -9 -85 -53 -107 -96 -26 -51 -36 -191 -19 -282 13 -69
56 -160 85 -181 22 -15 66 -19 66 -6 0 4 -13 13 -30 20 -31 14 -39 42 -20 72
8 12 15 11 48 -8 80 -44 112 -28 149 78 35 102 37 215 4 282 -23 49 -91 118
-115 118 -8 0 -20 2 -28 4 -7 2 -22 1 -33 -1z"/>
</g>
</svg>
