<svg width="54" height="44" viewBox="0 0 54 44" fill="none" xmlns="http://www.w3.org/2000/svg">
<g clip-path="url(#clip0)">
<path d="M11.3484 39.5957L7.86792 -0.193359H46.132L42.6515 39.5742L26.9683 44" fill="#E44D26"/>
<path d="M27 40.6162V3.07227H42.641L39.6562 37.0176" fill="#F16529"/>
<path d="M14.9766 7.93848H27V12.8154H20.2289L20.6719 17.8105H27V22.6768H16.2844L14.9766 7.93848ZM16.4953 25.126H21.3047L21.6422 29.0254L27 30.4863V35.5781L17.1703 32.7852" fill="#EBEBEB"/>
<path d="M38.9812 7.93848H26.9789V12.8154H38.5383L38.9812 7.93848ZM38.1058 17.8105H26.9789V22.6875H32.8851L32.3262 29.0254L26.9789 30.4863V35.5566L36.7875 32.7852" fill="white"/>
</g>
<defs>
<clipPath id="clip0">
<rect width="54" height="44" fill="white"/>
</clipPath>
</defs>
</svg>
