<svg width="44" height="44" viewBox="0 0 44 44" fill="none" xmlns="http://www.w3.org/2000/svg">
<path d="M43.9871 0H0.0128906C0.00577133 0 0 0.00577133 0 0.0128906V43.9871C0 43.9942 0.00577133 44 0.0128906 44H43.9871C43.9942 44 44 43.9942 44 43.9871V0.0128906C44 0.00577133 43.9942 0 43.9871 0Z" fill="#F7DF1E"/>
<path d="M27.8438 31.7969C28.7031 33.2578 29.9062 34.2891 31.8828 34.2891C33.6016 34.2891 34.7188 33.4297 34.7188 32.2266C34.7188 30.8516 33.6016 30.3359 31.7109 29.4766L30.6797 29.0469C27.6719 27.7578 25.6953 26.2109 25.6953 22.8594C25.6953 19.7656 28.0156 17.3594 31.7109 17.3594C34.375 17.3594 36.2656 18.3047 37.5547 20.7109L34.375 22.7734C33.6875 21.4844 32.9141 20.9688 31.7109 20.9688C30.5078 20.9688 29.7344 21.7422 29.7344 22.7734C29.7344 23.9766 30.5078 24.4922 32.3125 25.2656L33.3438 25.6953C36.8672 27.2422 38.8438 28.7031 38.8438 32.2266C38.8438 35.9219 35.9219 37.9844 31.9688 37.9844C28.1016 37.9844 25.6094 36.1797 24.4062 33.7734L27.8438 31.7969ZM13.2344 32.1406C13.9219 33.2578 14.4375 34.2891 15.8984 34.2891C17.2734 34.2891 18.1328 33.7734 18.1328 31.7109V17.4453H22.2578V31.5391C22.2578 35.8359 19.7656 37.7266 16.0703 37.7266C12.7188 37.7266 10.8281 36.0078 9.88281 33.9453L13.2344 32.1406Z" fill="black"/>
</svg>
