<svg width="44" height="44" viewBox="0 0 44 44" fill="none" xmlns="http://www.w3.org/2000/svg">
<g clip-path="url(#clip0)">
<path fill-rule="evenodd" clip-rule="evenodd" d="M42.9794 32.6586L42.7825 33.1754C39.4273 39.7715 33.4797 43.8194 24.997 43.9965C21.0331 44.0796 17.2519 43.0532 14.7847 41.9364C9.45661 39.5221 4.97711 35.0404 2.53148 30.2551C-0.97764 23.3952 -1.61143 13.85 5.6861 6.72266C5.7971 6.72266 4.80166 8.26956 4.91266 8.26956L4.71214 8.93097C-0.547952 25.5493 15.6548 39.7895 31.4029 38.1631C35.1913 37.7655 40.0181 35.6729 42.9794 32.6586Z" fill="#21609B"/>
<path fill-rule="evenodd" clip-rule="evenodd" d="M33.4476 25.788C37.4114 25.8169 41.5472 23.9447 44 21.3207C41.8551 26.8144 35.6461 30.3455 27.3209 29.2215C20.3493 28.2782 13.7106 21.1978 13.0267 14.1031C12.5254 8.93827 14.3086 5.85892 17.2484 2.11816C16.2279 4.07348 15.8447 5.58063 15.7516 6.54202C14.6308 17.7173 24.5889 25.7301 33.4476 25.788Z" fill="#21609B"/>
<path fill-rule="evenodd" clip-rule="evenodd" d="M43.6023 11.9162C42.9864 13.3438 39.4415 16.0365 37.8732 16.3726C31.6713 17.7063 27.7003 14.739 25.6199 11.3596C25.312 10.8536 24.7391 9.47659 24.6352 9.12601C23.8296 6.35748 24.1984 2.16856 26.6046 0C25.8813 2.06013 25.7739 4.45638 26.157 6.01413C26.3898 6.95384 27.0916 8.59832 27.797 9.632C29.0789 11.515 29.8917 11.9704 31.5424 12.9716C32.2837 13.4197 33.0822 13.7812 33.4259 13.8824C34.9871 14.345 38.285 15.5666 43.6023 11.9162Z" fill="#21609B"/>
</g>
<defs>
<clipPath id="clip0">
<rect width="44" height="44" fill="white"/>
</clipPath>
</defs>
</svg>
