<?xml version="1.0" encoding="UTF-8" standalone="no"?>
<svg
   xmlns:dc="http://purl.org/dc/elements/1.1/"
   xmlns:cc="http://creativecommons.org/ns#"
   xmlns:rdf="http://www.w3.org/1999/02/22-rdf-syntax-ns#"
   xmlns:svg="http://www.w3.org/2000/svg"
   xmlns="http://www.w3.org/2000/svg"
   xmlns:sodipodi="http://sodipodi.sourceforge.net/DTD/sodipodi-0.dtd"
   xmlns:inkscape="http://www.inkscape.org/namespaces/inkscape"
   version="1.0"
   width="450pt"
   height="500pt"
   viewBox="0 0 450 500"
   preserveAspectRatio="xMidYMid meet"
   id="svg6"
   sodipodi:docname="MongoDB.svg"
   inkscape:version="1.0.2-2 (e86c870879, 2021-01-15)">
  <metadata
     id="metadata12">
    <rdf:RDF>
      <cc:Work
         rdf:about="">
        <dc:format>image/svg+xml</dc:format>
        <dc:type
           rdf:resource="http://purl.org/dc/dcmitype/StillImage" />
        <dc:title></dc:title>
      </cc:Work>
    </rdf:RDF>
  </metadata>
  <defs
     id="defs10" />
  <sodipodi:namedview
     pagecolor="#ffffff"
     bordercolor="#666666"
     borderopacity="1"
     objecttolerance="10"
     gridtolerance="10"
     guidetolerance="10"
     inkscape:pageopacity="0"
     inkscape:pageshadow="2"
     inkscape:window-width="1608"
     inkscape:window-height="817"
     id="namedview8"
     showgrid="false"
     inkscape:zoom="0.259375"
     inkscape:cx="182.33543"
     inkscape:cy="858.45331"
     inkscape:window-x="0"
     inkscape:window-y="0"
     inkscape:window-maximized="0"
     inkscape:current-layer="svg6" />
  <g
     transform="matrix(0.1,0,0,-0.1,-232.60025,553.43464)"
     fill="#000000"
     stroke="none"
     id="g4"
     style="fill:#612d00;fill-opacity:1">
    <path
       d="m 4190,5477 c -3,-2 -79,-10 -170,-16 -91,-7 -176,-14 -190,-16 -14,-3 -70,-11 -125,-19 -55,-8 -131,-20 -170,-26 -103,-16 -386,-87 -495,-125 -252,-87 -473,-202 -504,-264 -24,-45 -70,-193 -79,-251 -2,-14 -8,-43 -15,-65 -17,-62 -42,-250 -47,-353 -3,-52 -8,-99 -11,-104 -8,-12 -8,-467 0,-506 3,-15 8,-61 11,-102 6,-81 18,-212 20,-220 1,-3 5,-32 9,-65 4,-33 14,-91 22,-130 8,-38 19,-90 24,-115 27,-129 73,-302 104,-390 9,-25 26,-72 37,-105 11,-33 31,-83 45,-112 13,-28 24,-55 24,-58 0,-16 95,-193 161,-302 156,-255 339,-484 578,-723 173,-173 201,-199 311,-291 99,-83 376,-285 425,-309 6,-3 35,-21 65,-41 49,-33 138,-83 313,-177 l 58,-32 87,45 c 114,58 208,111 242,135 16,11 31,20 34,20 11,0 253,166 366,250 312,237 618,545 838,845 45,61 89,121 100,135 59,80 252,419 252,444 0,3 11,29 24,58 14,29 35,82 47,118 12,36 26,70 29,75 4,6 10,21 13,35 2,14 16,66 31,115 46,160 69,257 81,340 3,22 10,56 15,75 11,41 37,252 45,360 3,41 8,106 12,144 9,101 10,317 2,421 -4,50 -10,128 -14,175 -14,181 -69,487 -104,575 -38,95 -53,116 -103,149 -107,68 -269,143 -428,198 -245,85 -654,166 -930,184 -52,3 -106,8 -120,11 -31,7 -913,17 -920,10 z m 445,-428 c 43,-89 87,-152 156,-224 112,-117 198,-215 251,-287 22,-29 44,-60 51,-68 7,-8 18,-28 26,-43 8,-15 18,-27 23,-27 4,0 8,-5 8,-11 0,-6 8,-23 19,-37 10,-15 37,-63 61,-107 24,-44 52,-95 62,-113 10,-18 18,-39 18,-47 0,-8 5,-15 10,-15 6,0 10,-7 10,-15 0,-8 9,-37 21,-63 32,-71 37,-84 50,-127 7,-22 17,-44 21,-50 4,-5 8,-17 8,-27 0,-10 4,-26 9,-36 5,-9 19,-55 31,-102 12,-47 26,-95 31,-108 5,-13 9,-40 9,-62 0,-21 4,-49 9,-63 5,-13 12,-81 15,-152 4,-71 9,-131 11,-134 3,-2 0,-10 -6,-17 -7,-8 -7,-14 1,-19 6,-3 8,-10 5,-15 -3,-4 -8,-68 -11,-141 -3,-74 -9,-136 -13,-139 -4,-3 -8,-27 -10,-55 -2,-27 -6,-54 -9,-60 -7,-11 -10,-27 -14,-62 -1,-13 -5,-23 -8,-23 -3,0 -7,-17 -8,-37 -2,-21 -7,-42 -12,-47 -6,-6 -10,-20 -10,-32 0,-13 -4,-26 -10,-29 -5,-3 -10,-14 -10,-24 0,-9 -9,-36 -20,-59 -11,-22 -20,-48 -20,-57 0,-8 -4,-15 -10,-15 -5,0 -10,-9 -10,-20 0,-11 -5,-20 -11,-20 -5,0 -8,-4 -4,-9 3,-5 -1,-15 -8,-23 -15,-14 -17,-20 -17,-44 0,-8 -4,-12 -10,-9 -5,3 -10,-1 -10,-10 0,-15 -19,-55 -31,-65 -3,-3 -12,-20 -20,-37 -8,-18 -17,-33 -21,-33 -5,0 -8,-5 -8,-10 0,-6 -5,-16 -10,-23 -34,-41 -110,-150 -110,-158 0,-6 -4,-7 -10,-4 -5,3 -10,1 -10,-5 0,-24 -224,-247 -305,-304 -15,-10 -42,-49 -59,-85 l -31,-66 v -215 l -1,-215 -22,2 c -12,2 -38,9 -57,17 l -35,15 v 108 c 0,59 -4,124 -9,143 -5,19 -12,56 -15,81 -13,104 -33,145 -94,196 -183,154 -343,328 -461,502 -73,107 -166,284 -210,401 -18,47 -37,94 -41,105 -5,11 -11,31 -15,45 -3,14 -17,67 -30,119 -14,51 -25,106 -25,122 0,15 -5,40 -11,56 -14,34 -20,383 -8,473 4,36 11,90 14,120 8,84 54,311 74,370 5,14 17,52 26,85 10,33 23,74 30,90 7,17 23,57 35,90 13,33 27,64 32,70 4,5 8,17 8,26 0,10 3,19 8,21 4,2 22,35 41,73 122,248 273,440 553,704 41,39 64,70 78,108 11,30 20,59 21,66 0,7 5,1 11,-13 6,-14 26,-55 43,-91 z"
       id="path2"
       style="fill:#612d00;fill-opacity:1" />
  </g>
</svg>
