<svg width="112" height="112" viewBox="0 0 112 112" fill="none" xmlns="http://www.w3.org/2000/svg">
<path d="M56 112C86.9279 112 112 86.9279 112 56C112 25.0721 86.9279 0 56 0C25.0721 0 0 25.0721 0 56C0 86.9279 25.0721 112 56 112Z" fill="white"/>
<path d="M40.611 48.432H53.089V49.426H41.755V56.907H52.413V57.901H41.755V66.114H53.219V67.108H40.611V48.432ZM54.207 48.432H55.533L61.408 56.646L67.413 48.432L75.581 38L62.162 57.509L69.077 67.108H67.699L61.408 58.372L55.091 67.108H53.739L60.706 57.509L54.207 48.432ZM69.571 49.426V48.432H83.79V49.426H77.24V67.108H76.095V49.426H69.571ZM25 48.432H26.43L46.146 78L37.998 67.108L26.196 49.845L26.144 67.108H25V48.432ZM83.676 65.814C83.441 65.814 83.266 65.633 83.266 65.399C83.266 65.164 83.441 64.982 83.675 64.982C83.912 64.982 84.084 65.164 84.084 65.399C84.084 65.633 83.912 65.814 83.675 65.814H83.676ZM84.799 64.72H85.411C85.42 65.052 85.662 65.275 86.018 65.275C86.416 65.275 86.641 65.036 86.641 64.586V61.739H87.264V64.589C87.264 65.399 86.797 65.865 86.023 65.865C85.298 65.865 84.8 65.412 84.8 64.72H84.799ZM88.079 64.684H88.697C88.75 65.066 89.122 65.309 89.66 65.309C90.16 65.309 90.527 65.049 90.527 64.692C90.527 64.385 90.294 64.201 89.762 64.075L89.245 63.95C88.519 63.78 88.188 63.427 88.188 62.836C88.188 62.118 88.772 61.64 89.648 61.64C90.463 61.64 91.059 62.118 91.095 62.796H90.488C90.43 62.425 90.108 62.193 89.64 62.193C89.147 62.193 88.819 62.431 88.819 62.794C88.819 63.081 89.031 63.246 89.554 63.369L89.996 63.478C90.819 63.67 91.159 64.005 91.159 64.611C91.159 65.381 90.563 65.865 89.612 65.865C88.722 65.865 88.124 65.404 88.079 64.684V64.684Z" fill="black"/>
</svg>
