<?xml version="1.0" standalone="no"?>
<!DOCTYPE svg PUBLIC "-//W3C//DTD SVG 20010904//EN"
 "http://www.w3.org/TR/2001/REC-SVG-20010904/DTD/svg10.dtd">
<svg version="1.0" xmlns="http://www.w3.org/2000/svg"
 width="280.000000pt" height="280.000000pt" viewBox="0 0 280.000000 280.000000"
 preserveAspectRatio="xMidYMid meet">

<g transform="translate(0.000000,280.000000) scale(0.100000,-0.100000)"
fill="#000000" stroke="none">
<path d="M1871 2640 c-55 -58 -75 -98 -91 -183 -8 -38 -18 -60 -31 -67 -10 -6
-58 -9 -107 -8 -82 3 -87 4 -90 26 -2 12 1 22 7 22 6 0 11 7 11 15 0 8 5 15
11 15 6 0 9 17 7 43 -3 37 -6 42 -29 45 -17 2 -35 -7 -57 -28 -28 -26 -39 -30
-87 -30 -30 0 -55 5 -55 10 0 6 -17 10 -38 10 -39 0 -92 -19 -92 -32 0 -5 -6
-8 -13 -8 -7 0 -22 -8 -33 -18 -10 -10 -44 -30 -74 -46 -92 -47 -143 -78 -225
-136 -43 -30 -85 -59 -94 -65 -9 -5 -23 -17 -31 -25 -8 -8 -37 -33 -65 -55
-27 -22 -59 -48 -69 -57 -11 -10 -24 -18 -28 -18 -5 0 -20 -11 -34 -25 -14
-14 -29 -25 -34 -25 -5 0 -15 -6 -22 -13 -7 -7 -29 -23 -48 -36 -19 -13 -48
-39 -65 -56 -16 -18 -42 -40 -57 -50 -16 -9 -28 -22 -28 -27 0 -6 -8 -18 -19
-27 -10 -9 -21 -26 -25 -38 -4 -13 -13 -29 -20 -35 -7 -7 -30 -48 -51 -91
l-39 -78 13 -77 c21 -119 18 -158 -18 -252 -18 -47 -36 -93 -42 -102 -5 -10
-9 -27 -9 -37 0 -11 -5 -23 -10 -26 -5 -3 -10 -17 -10 -30 0 -13 -5 -27 -10
-30 -6 -3 -10 -15 -10 -26 0 -10 -4 -19 -10 -19 -5 0 -10 -11 -10 -25 0 -14
-4 -25 -10 -25 -5 0 -10 -9 -10 -20 0 -11 5 -20 10 -20 6 0 10 -16 10 -35 0
-19 5 -35 10 -35 6 0 10 -23 10 -52 0 -65 18 -118 41 -118 15 0 119 84 127
103 2 4 8 7 14 7 17 0 67 57 72 82 23 112 40 198 43 226 3 18 9 35 14 38 5 3
9 16 9 30 0 13 4 24 8 24 4 0 14 20 21 45 14 48 31 60 31 23 0 -13 5 -30 10
-38 7 -10 10 11 10 68 0 48 4 82 10 82 6 0 10 5 10 11 0 15 26 39 42 39 21 -1
76 -129 82 -190 3 -30 10 -80 16 -110 14 -75 30 -278 23 -295 -17 -46 -68 29
-113 164 -11 31 -26 74 -34 96 -8 22 -15 55 -16 73 0 17 -4 32 -10 32 -5 0
-10 -20 -10 -45 0 -25 5 -45 10 -45 6 0 10 -14 10 -30 0 -17 5 -39 10 -50 6
-11 14 -29 20 -40 5 -11 10 -29 10 -40 0 -11 5 -20 10 -20 6 0 10 -11 10 -25
0 -14 4 -25 8 -25 5 0 18 -21 31 -47 19 -42 21 -61 18 -148 -3 -55 -8 -118
-12 -141 -5 -28 -2 -55 9 -88 18 -53 55 -128 66 -136 20 -13 50 -84 50 -118 0
-36 0 -36 18 -17 36 39 55 111 48 184 -8 74 -26 153 -36 161 -4 3 -16 23 -27
46 -15 30 -17 44 -9 57 8 12 7 22 -2 37 -6 11 -12 37 -12 58 0 21 -4 42 -9 48
-5 5 -12 47 -15 94 -3 47 -8 123 -12 168 l-6 84 24 -7 23 -7 -21 23 c-57 65
-71 220 -33 350 18 57 69 105 69 64 0 -8 4 -15 8 -15 5 0 20 -21 33 -47 13
-27 26 -50 29 -53 3 -3 14 -21 23 -41 21 -45 40 -61 61 -53 21 8 20 14 -9 48
-13 16 -27 37 -30 47 -4 11 -11 19 -16 19 -5 0 -9 8 -9 19 0 10 -11 35 -25 55
-30 45 -34 96 -7 96 11 0 27 -16 41 -42 53 -99 61 -115 76 -150 10 -21 21 -38
26 -38 5 0 9 -11 9 -25 0 -14 5 -25 10 -25 6 0 10 -8 10 -18 0 -10 9 -24 20
-32 11 -8 20 -26 20 -41 0 -15 5 -29 11 -31 12 -4 1 -38 -13 -38 -5 0 -16 -7
-24 -15 -9 -8 -12 -15 -9 -15 11 0 70 34 73 43 2 4 10 7 18 7 8 0 14 5 14 10
0 6 -6 10 -14 10 -7 0 -19 13 -26 30 -7 17 -16 30 -21 30 -5 0 -9 9 -9 19 0
11 -3 21 -7 23 -10 4 -73 127 -73 142 0 7 -16 43 -35 82 -19 38 -35 75 -35 82
0 31 57 4 124 -60 21 -21 45 -38 52 -38 8 0 14 -9 14 -20 0 -11 5 -20 10 -20
6 0 10 -8 10 -18 0 -10 15 -40 32 -68 18 -28 39 -67 47 -87 8 -20 18 -37 23
-37 4 0 8 -12 8 -26 0 -16 12 -37 31 -55 21 -19 27 -30 17 -33 -7 -2 -29 -8
-49 -15 -19 -6 -42 -11 -51 -11 -21 0 -109 -49 -129 -72 -9 -10 -21 -18 -27
-18 -5 0 -32 -24 -59 -54 -33 -37 -53 -52 -62 -47 -18 12 30 104 81 153 22 21
36 38 31 38 -12 0 -123 -108 -123 -120 0 -23 -46 -9 -65 20 -11 16 -23 30 -27
30 -5 0 -8 7 -8 15 0 8 -4 15 -10 15 -5 0 -10 -2 -10 -5 0 -7 41 -79 49 -85 3
-3 12 -17 20 -32 27 -52 72 -98 96 -98 13 0 27 -4 30 -10 3 -5 35 -10 70 -10
57 0 66 -3 87 -28 12 -15 31 -46 42 -69 10 -23 27 -43 37 -46 10 -3 22 -13 26
-24 13 -35 63 -59 63 -30 0 7 20 32 45 54 41 37 45 43 35 67 -5 15 -10 45 -10
67 0 21 -4 39 -9 39 -10 0 -41 95 -41 123 0 8 11 31 25 51 30 45 31 60 4 89
-11 12 -28 36 -36 52 -9 17 -22 37 -30 46 -8 9 -30 48 -50 85 -19 38 -38 71
-42 74 -7 5 -14 20 -60 122 -30 66 -27 92 12 122 30 25 33 25 47 9 8 -10 27
-24 42 -32 17 -8 28 -24 30 -39 2 -18 9 -26 25 -27 32 -2 37 -10 36 -52 -1
-27 6 -43 25 -63 15 -14 32 -33 37 -42 29 -45 103 -136 147 -179 56 -55 78
-60 139 -28 l41 20 17 -20 c28 -32 15 -64 -49 -124 -32 -30 -66 -71 -75 -91
-10 -20 -21 -36 -26 -36 -5 0 -9 -9 -9 -20 0 -11 -4 -20 -10 -20 -5 0 -10 -11
-10 -25 0 -14 4 -25 8 -25 5 0 14 -12 21 -27 16 -36 116 -169 159 -212 30 -30
36 -32 57 -21 20 11 28 9 56 -11 39 -28 128 -38 150 -18 8 8 26 20 42 28 15 8
27 18 27 23 0 4 6 8 13 8 7 0 20 12 29 28 25 42 100 122 115 122 7 0 13 4 13
8 0 5 10 14 23 21 12 7 33 30 47 52 13 21 28 39 32 39 4 0 8 11 8 25 0 14 -4
25 -10 25 -5 0 -10 5 -10 11 0 10 -52 69 -144 160 -50 51 -94 50 -146 -1 -14
-14 -73 -59 -136 -105 -39 -28 -156 -147 -171 -173 -7 -12 -13 -31 -13 -42 0
-11 -4 -20 -10 -20 -5 0 -10 9 -10 20 0 11 -4 20 -10 20 -5 0 -10 11 -10 25 0
14 -4 25 -10 25 -5 0 -10 23 -10 50 0 28 4 50 9 50 5 0 11 9 14 20 3 11 1 20
-4 20 -5 0 -9 -4 -9 -8 0 -5 -9 -19 -20 -32 -22 -25 -22 -26 13 -132 29 -93
15 -101 -39 -23 -39 56 -44 86 -22 133 11 23 24 42 29 42 5 0 9 7 9 15 0 9 8
19 18 22 9 4 38 29 64 55 50 51 58 56 58 34 0 -8 -9 -18 -20 -21 -11 -3 -20
-11 -20 -17 0 -5 -10 -18 -22 -28 -13 -10 -20 -22 -16 -25 9 -9 108 90 108
108 0 6 9 23 20 37 25 32 25 62 0 78 -24 15 -41 53 -30 67 4 6 10 20 13 32 6
25 -3 36 -93 130 -33 34 -60 66 -60 72 0 6 -3 11 -7 11 -5 0 -19 17 -33 38
-31 47 -36 52 -73 93 -16 19 -42 50 -56 69 -14 19 -38 48 -53 64 -36 37 -35
46 2 46 18 0 39 -10 54 -25 14 -14 29 -25 33 -25 15 -1 63 -49 63 -64 0 -8 24
-34 53 -58 65 -54 77 -65 77 -73 0 -3 25 -31 55 -62 52 -53 57 -55 79 -43 22
11 29 10 68 -21 24 -18 45 -36 48 -40 3 -3 28 -23 55 -43 47 -36 114 -94 224
-196 27 -25 70 -63 96 -85 25 -22 66 -58 89 -81 42 -41 43 -41 59 -21 9 12 17
24 17 29 0 14 86 -37 123 -74 29 -29 47 -38 72 -38 19 0 37 5 40 10 3 6 26 10
50 10 55 0 75 8 75 29 0 17 -61 81 -77 81 -10 0 -61 42 -121 98 -25 23 -49 42
-54 42 -5 0 -27 16 -48 36 -22 20 -49 43 -59 51 -11 7 -26 32 -32 54 -12 37
-34 62 -89 99 -12 8 -30 22 -41 30 -11 8 -37 29 -60 45 -22 17 -55 42 -73 58
-19 15 -37 27 -40 27 -4 0 -18 11 -31 24 -13 14 -34 27 -45 31 -11 3 -20 11
-20 16 0 5 -7 9 -15 9 -18 0 -55 22 -105 62 -41 33 -43 35 -92 68 -21 14 -38
28 -38 33 0 4 -6 7 -13 7 -8 0 -22 9 -32 20 -10 11 -23 20 -29 20 -7 0 -18 9
-26 20 -8 11 -22 20 -31 20 -9 0 -20 7 -23 16 -8 22 1 31 16 16 7 -7 22 -12
34 -12 13 0 26 -4 29 -10 3 -5 15 -10 26 -10 10 0 19 -4 19 -10 0 -5 7 -10 15
-10 8 0 23 -4 33 -9 40 -22 180 -81 217 -92 22 -6 50 -15 63 -20 13 -5 34 -9
47 -9 14 0 25 -4 25 -10 0 -5 15 -10 34 -10 19 0 38 -4 41 -10 3 -5 19 -10 36
-10 16 0 29 -4 29 -10 0 -5 20 -10 45 -10 25 0 45 -4 45 -9 0 -5 24 -11 53
-14 72 -7 119 -18 142 -32 11 -7 34 -15 52 -18 26 -5 34 -2 47 18 9 13 13 32
9 42 -9 27 -44 63 -61 63 -8 0 -1 -12 18 -30 18 -17 29 -34 25 -38 -4 -4 -10
-1 -12 6 -3 6 -13 12 -24 12 -10 0 -19 5 -19 10 0 6 -9 10 -20 10 -11 0 -20 5
-20 10 0 6 -6 10 -14 10 -21 0 -87 40 -81 50 5 9 75 -12 75 -22 0 -5 15 -7 33
-7 23 1 26 3 10 6 -13 2 -23 9 -23 14 0 5 -9 9 -20 9 -11 0 -20 5 -20 10 0 6
-9 10 -20 10 -22 0 -60 29 -60 45 0 6 -16 17 -35 25 -19 8 -35 17 -35 22 0 4
-8 8 -17 8 -10 1 -36 9 -58 20 -45 22 -55 24 -55 12 0 -5 16 -14 35 -22 19 -8
35 -17 35 -22 0 -4 7 -8 15 -8 16 0 51 -18 72 -36 13 -12 21 -99 10 -110 -6
-7 -106 19 -137 35 -8 4 -36 14 -62 22 -27 7 -48 17 -48 21 0 4 -10 8 -22 8
-23 0 -81 16 -110 31 -10 5 -31 9 -48 9 -16 0 -30 5 -30 10 0 6 -9 10 -19 10
-11 0 -23 5 -26 10 -3 6 -17 10 -31 10 -13 0 -24 5 -24 10 0 6 -8 10 -18 10
-10 0 -42 11 -70 25 -29 14 -57 25 -63 25 -29 0 -143 80 -160 112 -25 46 87
94 127 54 8 -8 14 -27 14 -43 0 -29 46 -93 68 -93 7 0 12 -4 12 -10 0 -5 20
-10 45 -10 38 0 45 3 45 20 0 11 5 20 10 20 6 0 10 6 10 14 0 22 28 27 73 11
27 -9 45 -11 51 -5 7 7 2 10 -12 10 -12 0 -22 3 -22 8 0 7 -29 21 -72 36 -19
6 -26 56 -8 56 6 0 10 21 10 46 0 64 11 71 107 71 53 0 95 5 120 15 21 9 46
19 55 22 55 17 -49 68 -174 87 -82 11 -88 14 -88 35 0 13 14 54 31 91 34 73
46 182 22 190 -7 2 -34 -19 -62 -47z m49 -46 c0 -24 -4 -44 -10 -44 -5 0 -10
-11 -10 -24 0 -14 -4 -28 -10 -31 -5 -3 -10 -14 -10 -24 0 -46 -43 -93 -70
-76 -13 8 -13 42 0 50 6 3 10 24 10 46 0 21 5 39 10 39 6 0 10 9 10 20 0 11 5
20 10 20 6 0 10 7 10 15 0 18 42 64 53 58 4 -2 7 -24 7 -49z m-367 -98 c6 -16
-28 -52 -37 -38 -4 8 19 52 28 52 2 0 6 -6 9 -14z m-160 -47 c14 -6 31 -23 38
-38 17 -32 34 -51 48 -51 5 0 13 -9 16 -20 3 -11 11 -20 16 -20 23 0 6 -48
-30 -85 -46 -48 -110 -105 -117 -105 -3 0 -23 -16 -44 -36 -22 -20 -50 -44
-62 -53 -13 -8 -28 -20 -34 -26 -6 -5 -22 -17 -34 -25 -12 -8 -41 -32 -64 -52
-22 -21 -44 -38 -48 -38 -5 0 -27 -18 -49 -40 -23 -22 -46 -40 -51 -40 -6 0
-22 -13 -37 -29 -31 -33 -185 -141 -201 -141 -5 0 -10 -4 -10 -8 0 -4 -13 -16
-30 -25 -16 -10 -35 -23 -42 -31 -27 -27 -121 -86 -183 -115 -53 -25 -78 -31
-135 -31 -39 0 -70 4 -70 9 0 5 -9 13 -20 16 -15 5 -20 15 -20 41 0 19 -6 44
-13 55 -9 17 -9 23 1 26 6 3 12 13 12 24 0 10 5 19 10 19 6 0 10 9 10 20 0 11
5 20 10 20 6 0 10 9 10 20 0 11 4 20 8 20 4 0 16 15 27 33 21 35 162 177 177
177 5 0 23 13 41 30 18 16 36 30 40 30 10 0 94 66 118 92 9 10 21 18 26 18 6
0 24 14 41 30 18 17 34 30 37 30 6 0 78 54 103 78 7 6 17 12 21 12 4 0 18 9
31 20 13 11 28 20 35 20 7 0 19 8 28 18 9 10 32 24 52 32 19 8 35 17 35 22 0
4 7 8 15 8 17 0 52 18 73 38 7 6 23 12 35 12 12 0 45 11 72 24 57 28 75 30
108 15z m427 -99 c0 -5 9 -10 19 -10 11 0 23 5 26 10 3 6 28 10 55 10 27 0 52
-4 55 -10 3 -5 29 -10 56 -10 30 0 56 -6 65 -14 19 -20 18 -26 -5 -26 -11 0
-21 -6 -24 -12 -5 -17 -243 -16 -260 1 -6 6 -26 11 -43 11 -18 0 -36 5 -39 10
-3 6 -20 10 -36 10 -27 0 -59 19 -59 34 0 3 43 6 95 6 57 0 95 -4 95 -10z
m-176 -40 c17 -5 43 -12 58 -15 42 -8 59 -32 56 -77 -3 -35 -8 -42 -50 -65
-51 -28 -79 -27 -119 6 -20 16 -21 21 -10 35 9 11 12 34 9 71 -5 61 -1 63 56
45z m182 -93 c-8 -15 -8 -21 2 -24 24 -9 6 -83 -21 -83 -2 0 -8 32 -11 71 -6
54 -4 74 5 80 20 12 39 -21 25 -44z m-57 -93 c14 -31 7 -43 -17 -27 -13 8 -21
7 -31 -4 -8 -9 -10 -18 -5 -22 5 -3 14 -15 20 -26 8 -14 20 -19 38 -17 22 2
26 -1 26 -22 0 -23 -16 -36 -45 -36 -21 0 -66 68 -67 100 -1 31 34 80 57 80 7
0 17 -12 24 -26z m-318 -155 c22 -11 41 -26 98 -76 20 -18 39 -33 44 -33 4 0
21 -13 39 -30 17 -16 35 -30 39 -30 5 0 30 -20 56 -45 26 -24 53 -45 58 -45 6
0 17 -9 25 -20 8 -11 21 -20 30 -20 9 0 22 -9 30 -20 8 -11 22 -20 32 -20 10
0 18 -4 18 -10 0 -5 4 -10 10 -10 13 0 130 -73 156 -97 7 -7 16 -13 21 -13 4
0 22 -14 40 -30 18 -17 34 -30 37 -30 3 0 25 -18 48 -40 24 -22 49 -40 55 -40
7 0 13 -4 13 -9 0 -5 9 -13 20 -16 11 -3 20 -15 20 -25 0 -10 5 -22 10 -25 6
-4 10 -53 10 -115 0 -69 4 -111 11 -116 11 -6 -5 -23 -22 -24 -8 0 -80 62
-136 118 -23 23 -45 42 -48 42 -3 0 -25 19 -50 43 -24 23 -58 53 -75 67 -18
14 -40 33 -51 43 -10 9 -23 17 -29 17 -5 0 -10 5 -10 10 0 6 -6 10 -14 10 -8
0 -18 9 -21 20 -3 11 -11 20 -16 20 -5 0 -19 9 -31 20 -12 11 -27 20 -32 20
-6 0 -21 16 -34 36 -18 27 -21 39 -12 49 9 11 4 22 -24 50 -19 19 -39 35 -44
35 -5 0 -17 9 -27 20 -10 11 -24 20 -32 20 -7 0 -13 5 -13 11 0 11 -57 69 -68
69 -3 0 -14 -7 -24 -17 -17 -15 -21 -14 -66 18 -83 59 -112 94 -112 134 0 35
15 73 35 87 13 10 13 10 36 -3z m-188 -199 c27 -12 58 -37 74 -58 16 -20 48
-57 73 -82 25 -25 51 -56 58 -70 7 -14 38 -52 68 -85 30 -33 54 -64 54 -70 0
-6 17 -28 38 -51 42 -44 40 -52 -15 -76 -39 -18 -89 -70 -98 -104 -4 -16 -10
-23 -12 -16 -3 6 -8 12 -13 12 -11 0 -90 80 -90 91 0 5 -4 9 -9 9 -14 0 -71
60 -71 75 0 8 -4 15 -8 15 -13 0 -46 71 -48 103 -3 32 -20 57 -40 57 -8 0 -14
9 -14 21 0 21 -13 37 -45 55 -11 6 -24 20 -30 32 -5 12 -13 22 -17 22 -5 0 -8
16 -8 35 0 19 5 35 10 35 6 0 10 5 10 11 0 16 52 59 71 59 9 0 37 -9 62 -20z
m361 -105 c20 -19 39 -35 44 -35 12 0 92 -82 92 -95 0 -6 -6 -19 -13 -28 -11
-16 -14 -16 -35 -2 -12 9 -22 21 -22 26 0 6 -32 42 -71 81 -54 53 -68 72 -58
79 21 13 26 12 63 -26z m-1354 -329 c0 -14 -4 -28 -10 -31 -5 -3 -10 -17 -10
-31 0 -13 -4 -24 -10 -24 -5 0 -10 -18 -10 -40 0 -22 -4 -40 -10 -40 -5 0 -10
-13 -10 -30 0 -16 -4 -30 -10 -30 -5 0 -10 -12 -10 -26 0 -14 -7 -47 -16 -75
-15 -46 -19 -49 -49 -49 -29 0 -33 3 -31 23 2 12 6 29 9 37 3 8 15 47 27 85
13 39 26 74 31 80 5 5 9 19 9 31 0 13 5 26 10 29 6 3 10 15 10 26 0 10 4 19 8
19 5 0 14 16 22 35 16 42 50 49 50 11z m80 -25 c0 -17 -4 -33 -10 -36 -5 -3
-10 -17 -10 -30 0 -13 -4 -27 -10 -30 -5 -3 -10 -19 -10 -36 0 -16 -4 -29 -10
-29 -5 0 -10 -20 -10 -45 0 -25 -4 -45 -10 -45 -5 0 -10 -13 -10 -30 0 -16 -4
-30 -10 -30 -5 0 -10 -13 -10 -30 0 -27 -3 -30 -30 -30 -25 0 -30 4 -30 24 0
14 5 28 10 31 6 3 10 17 10 31 0 13 5 24 10 24 6 0 10 23 10 50 0 28 5 50 10
50 6 0 10 14 10 30 0 17 5 30 10 30 6 0 10 13 10 29 0 17 5 33 10 36 6 3 10
14 10 24 0 22 19 41 42 41 13 0 18 -8 18 -29z m1329 -50 c11 -7 9 -10 -8 -16
-12 -4 -42 -27 -67 -51 -33 -34 -46 -41 -50 -30 -6 15 44 72 82 94 23 14 25
14 43 3z m-1309 -52 c0 -41 -18 -126 -30 -144 -3 -5 -15 -45 -25 -87 -19 -80
-45 -107 -45 -48 0 17 4 30 9 30 5 0 11 24 14 53 8 70 24 156 36 187 5 14 12
33 15 43 10 30 26 9 26 -34z m2060 -19 c8 -11 18 -20 23 -20 4 0 19 -11 33
-25 14 -14 29 -25 35 -25 9 0 57 -43 144 -127 18 -18 38 -33 44 -33 6 0 11 -4
11 -10 0 -5 -7 -10 -15 -10 -8 0 -15 -4 -15 -10 0 -5 -13 -10 -28 -10 -15 0
-33 -5 -40 -12 -9 -9 -12 -7 -12 10 0 16 -6 22 -23 22 -26 0 -77 21 -77 33 0
4 -7 7 -15 7 -53 0 -138 175 -105 215 16 20 23 19 40 -5z m-740 -20 c0 -13 -7
-20 -20 -20 -13 0 -20 7 -20 20 0 13 7 20 20 20 13 0 20 -7 20 -20z m411 -172
c39 -40 84 -89 100 -109 l28 -36 -28 -44 c-15 -25 -41 -53 -57 -64 -16 -10
-45 -35 -64 -56 -19 -20 -59 -62 -88 -93 -30 -32 -59 -55 -65 -53 -7 2 -25 30
-42 63 -16 32 -42 72 -57 88 -16 16 -28 33 -28 38 0 5 -16 26 -35 46 -19 20
-35 42 -35 47 0 16 97 115 112 115 7 0 20 9 28 20 8 11 20 20 27 20 7 0 25 13
40 28 31 31 73 62 86 62 4 0 39 -33 78 -72z m-873 14 c2 -18 -1 -32 -7 -32 -6
0 -11 -9 -11 -20 0 -11 -4 -20 -10 -20 -5 0 -10 -11 -10 -25 0 -15 -7 -28 -17
-32 -10 -4 -33 -21 -51 -38 -19 -16 -39 -33 -45 -37 -11 -6 -168 7 -194 17
-13 4 -6 45 8 45 5 0 9 5 9 10 0 17 47 60 65 60 8 0 15 8 15 19 0 10 8 21 18
24 9 4 35 17 58 31 52 30 68 35 124 32 43 -2 45 -4 48 -34z m-1098 -115 c0
-53 46 -63 56 -12 4 25 11 35 25 35 15 0 19 -7 19 -39 0 -31 4 -41 20 -46 26
-8 25 -31 -3 -58 -43 -41 -97 -62 -97 -37 0 6 -15 10 -34 10 -32 0 -34 2 -40
46 -9 68 -8 93 7 109 20 23 47 18 47 -8z m1080 -72 c0 -14 -4 -25 -10 -25 -5
0 -10 -6 -10 -12 -1 -7 -17 -23 -36 -36 -30 -19 -37 -20 -49 -8 -12 11 -12 19
-2 40 7 14 15 26 18 26 3 0 16 9 29 20 33 28 60 26 60 -5z m500 -45 c0 -5 5
-10 11 -10 15 0 28 -16 74 -85 51 -77 65 -103 65 -124 0 -9 5 -22 12 -29 9 -9
3 -12 -29 -12 -51 0 -67 19 -64 73 l2 42 -37 0 c-31 0 -40 5 -55 30 -21 35
-24 90 -6 110 14 17 27 19 27 5z m-1054 -205 c-8 -8 -17 -15 -20 -15 -3 0 -6
7 -6 15 0 9 9 15 21 15 18 0 19 -2 5 -15z m45 -115 c26 0 29 -3 29 -30 0 -16
5 -30 10 -30 6 0 10 -28 10 -64 0 -42 4 -66 13 -70 10 -5 10 -7 0 -12 -7 -3
-13 -19 -13 -35 0 -16 -4 -29 -10 -29 -6 0 -10 35 -10 84 0 47 -4 88 -10 91
-5 3 -10 17 -10 31 0 13 -4 24 -10 24 -15 0 -12 -57 3 -63 6 -3 2 -6 -10 -6
-28 -1 -30 -17 -3 -33 12 -8 20 -24 20 -40 0 -34 -4 -35 -34 -5 -29 29 -39 66
-20 74 16 6 19 68 4 78 -12 7 -13 58 -2 69 4 4 8 -2 10 -13 3 -16 11 -21 33
-21z"/>
<path d="M402 1748 c-35 -35 4 -78 72 -78 43 0 47 -2 44 -22 -2 -12 -13 -28
-25 -34 -27 -13 -20 -24 17 -24 31 0 50 17 50 45 -1 37 -24 55 -72 55 -55 0
-81 22 -49 40 12 6 21 15 21 20 0 14 -44 12 -58 -2z"/>
<path d="M330 1670 c0 -6 5 -16 10 -23 46 -55 60 -73 60 -82 0 -18 -21 -34
-36 -28 -8 3 -14 0 -14 -6 0 -16 59 -14 76 3 16 17 19 56 4 56 -5 0 -10 6 -10
13 0 7 -15 27 -33 45 -33 32 -57 41 -57 22z"/>
<path d="M1993 2003 c9 -2 17 -8 17 -13 0 -12 36 -19 51 -9 10 6 8 9 -8 9 -12
0 -25 5 -28 10 -3 6 -16 9 -28 9 -17 -1 -18 -2 -4 -6z"/>
<path d="M2088 1963 c12 -2 22 -9 22 -14 0 -5 9 -9 19 -9 11 0 21 -5 23 -11 2
-6 14 -9 28 -7 23 3 23 3 -6 17 -16 7 -37 17 -46 22 -10 5 -28 8 -40 8 l-23
-2 23 -4z"/>
<path d="M1075 1160 c3 -5 8 -10 11 -10 2 0 4 5 4 10 0 6 -5 10 -11 10 -5 0
-7 -4 -4 -10z"/>
</g>
</svg>
