<svg width="40" height="39" viewBox="0 0 40 39" fill="none" xmlns="http://www.w3.org/2000/svg">
<path d="M0 0H40V39H0V0Z" fill="#34BDB2"/>
<path d="M26.3221 13.26C24.2102 12.0654 22.3355 11.1259 19.883 11.1673C18.4799 11.1911 17.2752 11.9346 17.0219 13.2955C16.7861 14.5617 17.9405 15.264 19.1414 15.6951C21.1332 16.4102 22.8671 17.1652 24.8241 17.9603C28.3818 19.4059 30.206 21.747 29.9904 24.7507C29.716 28.5726 27.3569 31.3137 23.6077 32.2174C18.7086 33.3984 13.9513 31.5995 9.93176 29.0883C10.9463 27.5814 12.1233 26.5528 13.1318 25.0551C15.4539 26.0188 17.2783 27.3211 19.7077 27.5241C21.4207 27.6673 23.3616 27.5877 23.7464 25.6259C24.0933 23.8569 22.5143 22.9086 20.9741 22.3789C19.1405 21.7483 17.3104 20.977 15.5122 20.261C12.1883 18.9373 10.8358 16.3482 11.0635 13.2981C11.0635 11.5098 12.5854 7.8951 16.3168 6.7708C22.0499 5.04322 25.2086 6.81224 29.366 9.41717C28.2618 10.841 27.4129 11.8533 26.3221 13.26Z" fill="white"/>
</svg>
