<svg id="svg" version="1.1" xmlns="http://www.w3.org/2000/svg" xmlns:xlink="http://www.w3.org/1999/xlink" width="400" height="400" viewBox="0, 0, 400,400"><g id="svgg"><path id="path0" d="M346.730 1.394 C 339.722 2.088,335.600 4.047,335.600 6.682 C 335.600 6.905,335.190 7.698,334.690 8.444 C 333.141 10.751,331.720 17.544,330.599 28.000 C 330.257 31.190,329.803 34.901,329.589 36.246 C 327.898 46.879,330.397 53.431,338.802 60.408 C 342.014 63.073,343.087 63.712,348.400 66.122 C 361.872 72.231,386.027 72.514,389.274 66.600 C 391.125 63.230,391.281 62.725,391.683 58.801 C 391.897 56.712,392.256 54.889,392.481 54.750 C 392.734 54.593,392.682 54.421,392.345 54.298 C 391.908 54.139,391.899 53.995,392.300 53.570 C 392.591 53.262,392.800 51.987,392.800 50.520 C 392.800 48.644,392.941 48.000,393.352 48.000 C 394.345 48.000,394.961 37.601,394.951 21.000 C 394.940 3.648,394.789 3.356,385.000 1.770 C 379.451 0.871,354.484 0.625,346.730 1.394 M328.227 1.701 C 328.055 2.086,328.056 2.896,328.229 3.501 C 328.526 4.535,328.554 4.546,328.700 3.700 C 328.953 2.238,328.619 0.826,328.227 1.701 M327.200 8.776 C 327.200 9.643,327.380 10.464,327.600 10.600 C 327.844 10.751,328.000 10.137,328.000 9.024 C 328.000 8.021,327.820 7.200,327.600 7.200 C 327.380 7.200,327.200 7.909,327.200 8.776 M326.811 13.200 C 326.764 13.310,326.645 13.969,326.545 14.665 C 326.367 15.903,326.953 16.881,327.283 15.898 C 327.444 15.420,326.983 12.790,326.811 13.200 M326.400 21.000 C 326.400 21.770,326.580 22.400,326.800 22.400 C 327.020 22.400,327.200 21.770,327.200 21.000 C 327.200 20.230,327.020 19.600,326.800 19.600 C 326.580 19.600,326.400 20.230,326.400 21.000 M325.600 27.000 C 325.600 27.990,325.780 28.800,326.000 28.800 C 326.220 28.800,326.400 27.990,326.400 27.000 C 326.400 26.010,326.220 25.200,326.000 25.200 C 325.780 25.200,325.600 26.010,325.600 27.000 M324.888 32.126 C 324.619 32.745,324.427 34.185,324.460 35.326 C 324.499 36.685,324.581 36.987,324.696 36.201 C 324.793 35.542,325.048 34.894,325.262 34.762 C 325.476 34.629,325.590 33.729,325.514 32.760 L 325.375 31.000 324.888 32.126 M323.867 38.667 C 323.720 38.813,323.630 39.938,323.667 41.167 C 323.719 42.896,323.770 43.060,323.892 41.892 C 323.978 41.062,324.205 40.480,324.396 40.597 C 324.829 40.865,325.341 39.351,325.002 38.804 C 324.715 38.338,324.251 38.282,323.867 38.667 M323.663 45.507 C 323.643 46.520,323.845 47.620,324.113 47.952 C 324.498 48.428,324.495 48.491,324.100 48.253 C 323.816 48.083,323.600 48.151,323.600 48.410 C 323.600 48.661,323.825 48.792,324.100 48.702 C 324.850 48.454,325.000 44.162,324.269 43.882 C 323.831 43.714,323.692 44.088,323.663 45.507 M324.908 50.567 C 325.489 51.429,325.855 52.311,325.721 52.529 C 325.584 52.749,325.680 52.798,325.938 52.638 C 326.505 52.288,326.551 51.200,326.000 51.200 C 325.780 51.200,325.600 50.810,325.600 50.333 C 325.600 49.857,325.482 49.585,325.337 49.730 C 325.192 49.875,324.798 49.770,324.462 49.497 C 324.126 49.223,324.326 49.705,324.908 50.567 M327.378 54.035 C 327.231 54.274,327.310 54.670,327.555 54.915 C 327.882 55.242,328.000 55.126,328.000 54.480 C 328.000 53.514,327.792 53.365,327.378 54.035 M328.242 55.491 C 328.109 55.624,328.000 55.913,328.000 56.133 C 328.000 56.353,328.105 56.428,328.233 56.300 C 328.579 55.955,329.906 57.333,329.678 57.800 C 329.570 58.020,329.711 57.989,329.990 57.731 C 330.396 57.357,330.295 57.058,329.492 56.255 C 328.938 55.701,328.376 55.358,328.242 55.491 M332.690 60.300 C 333.030 61.198,333.823 62.000,334.371 62.000 C 334.607 62.000,334.800 62.191,334.800 62.424 C 334.800 62.657,334.957 62.750,335.148 62.632 C 335.339 62.514,335.996 62.848,336.609 63.374 C 338.434 64.942,339.541 65.419,340.088 64.872 C 340.451 64.509,340.356 64.400,339.680 64.400 C 339.196 64.400,338.800 64.220,338.800 64.000 C 338.800 63.780,338.480 63.600,338.088 63.600 C 337.697 63.600,337.117 63.240,336.800 62.800 C 336.483 62.360,335.995 62.000,335.715 62.000 C 335.436 62.000,334.691 61.460,334.060 60.800 C 332.762 59.442,332.302 59.274,332.690 60.300 M340.400 65.600 C 340.400 65.820,340.670 66.000,341.000 66.000 C 341.330 66.000,341.600 65.820,341.600 65.600 C 341.600 65.380,341.330 65.200,341.000 65.200 C 340.670 65.200,340.400 65.380,340.400 65.600 M342.000 66.386 C 342.000 66.935,343.669 67.784,344.500 67.657 C 344.909 67.594,345.200 67.805,345.200 68.162 C 345.200 68.542,345.428 68.688,345.800 68.545 C 346.213 68.386,346.400 68.570,346.400 69.134 C 346.400 69.584,346.580 70.064,346.800 70.200 C 347.039 70.347,347.200 69.862,347.200 68.997 C 347.200 67.728,347.100 67.578,346.400 67.800 C 345.832 67.980,345.600 67.872,345.600 67.427 C 345.600 66.997,345.223 66.800,344.400 66.800 C 343.740 66.800,343.200 66.620,343.200 66.400 C 343.200 66.180,342.930 66.000,342.600 66.000 C 342.270 66.000,342.000 66.174,342.000 66.386 M396.000 74.000 C 395.570 74.278,395.997 74.389,397.500 74.394 C 398.655 74.397,399.600 74.220,399.600 74.000 C 399.600 73.488,396.792 73.488,396.000 74.000 M345.600 75.400 C 345.600 75.730,345.780 76.000,346.000 76.000 C 346.220 76.000,346.400 75.730,346.400 75.400 C 346.400 75.070,346.220 74.800,346.000 74.800 C 345.780 74.800,345.600 75.070,345.600 75.400 M352.293 75.868 C 350.305 76.914,349.219 79.563,345.761 91.800 C 344.766 95.320,343.673 99.190,343.331 100.400 C 342.710 102.603,336.420 127.541,336.377 127.971 C 336.365 128.097,336.134 127.570,335.863 126.800 C 335.391 125.454,335.703 124.569,336.481 125.050 C 337.011 125.377,336.840 124.636,336.164 123.670 C 334.939 121.921,334.083 123.847,333.887 128.793 C 333.815 130.604,333.922 131.009,334.500 131.122 C 335.062 131.232,335.200 130.976,335.200 129.829 C 335.200 129.043,335.400 128.400,335.643 128.400 C 336.120 128.400,335.907 129.756,335.115 131.754 C 334.679 132.856,334.644 132.870,334.342 132.054 C 333.850 130.724,332.714 130.951,332.860 132.350 C 332.927 132.982,332.740 133.790,332.446 134.145 C 331.693 135.052,332.194 136.800,333.208 136.800 C 333.776 136.800,333.987 137.054,333.954 137.700 C 333.917 138.413,333.868 138.450,333.720 137.877 C 333.208 135.902,331.485 137.274,331.378 139.742 C 331.322 141.030,331.079 142.281,330.838 142.522 C 330.597 142.763,330.400 143.543,330.400 144.256 C 330.400 144.969,330.220 145.664,330.000 145.800 C 329.780 145.936,329.600 146.767,329.600 147.647 C 329.600 148.527,329.465 149.164,329.300 149.062 C 329.135 148.960,328.974 149.309,328.942 149.838 C 328.910 150.380,329.107 150.800,329.393 150.800 C 329.673 150.800,330.126 151.070,330.400 151.400 C 330.714 151.778,330.741 152.000,330.473 152.000 C 330.239 152.000,329.934 151.817,329.796 151.593 C 329.361 150.890,328.800 151.597,328.800 152.847 C 328.800 153.545,328.633 153.944,328.400 153.800 C 328.159 153.651,328.000 154.187,328.000 155.149 C 328.000 156.485,328.146 156.772,328.900 156.918 C 329.551 157.043,329.440 157.106,328.500 157.146 C 327.340 157.194,327.200 157.327,327.200 158.376 C 327.200 159.023,327.029 159.658,326.821 159.787 C 326.323 160.095,326.352 164.861,326.856 165.467 C 327.140 165.809,327.022 165.878,326.423 165.722 C 325.722 165.539,325.600 165.692,325.600 166.753 C 325.600 167.439,325.434 168.000,325.232 168.000 C 324.587 168.000,324.253 170.462,324.848 170.830 C 325.676 171.341,326.869 170.076,326.394 169.190 C 326.004 168.459,326.946 167.665,327.376 168.361 C 327.776 169.009,326.704 180.610,326.129 181.858 C 325.566 183.078,321.666 185.600,320.341 185.600 C 319.289 185.600,315.782 187.732,313.668 189.658 C 311.565 191.573,310.800 191.984,310.800 191.200 C 310.800 190.980,310.958 190.800,311.151 190.800 C 311.345 190.800,311.724 190.267,311.994 189.615 C 312.508 188.374,313.902 186.797,315.778 185.334 C 316.888 184.469,316.896 183.435,315.789 183.859 C 315.468 183.983,315.304 184.245,315.426 184.442 C 315.548 184.639,315.266 184.800,314.800 184.800 C 314.334 184.800,314.064 184.980,314.200 185.200 C 314.336 185.420,314.161 185.600,313.811 185.600 C 313.461 185.600,313.063 185.890,312.927 186.245 C 312.791 186.600,312.032 187.555,311.240 188.367 C 310.448 189.180,309.545 190.329,309.232 190.922 C 308.920 191.515,308.515 192.000,308.332 192.000 C 308.150 192.000,308.000 192.270,308.000 192.600 C 308.000 192.930,307.820 193.200,307.600 193.200 C 307.380 193.200,307.200 193.549,307.200 193.976 C 307.200 194.403,307.020 194.864,306.800 195.000 C 306.580 195.136,306.400 195.687,306.400 196.224 C 306.400 196.761,306.220 197.200,306.000 197.200 C 305.780 197.200,305.600 197.560,305.600 198.000 C 305.600 198.440,305.453 198.800,305.274 198.800 C 304.787 198.800,303.600 201.487,303.600 202.590 C 303.600 203.120,303.420 203.664,303.200 203.800 C 302.980 203.936,302.800 204.577,302.800 205.224 C 302.800 205.871,302.638 206.400,302.440 206.400 C 302.242 206.400,302.118 206.946,302.164 207.614 C 302.210 208.282,302.052 208.991,301.812 209.190 C 301.572 209.389,301.337 210.867,301.288 212.476 C 301.240 214.084,301.020 215.460,300.800 215.533 C 299.960 215.813,300.322 220.686,301.200 220.916 C 302.659 221.297,302.288 223.333,300.800 223.115 C 299.858 222.976,299.600 223.089,299.600 223.636 C 299.600 224.020,299.375 224.424,299.100 224.535 C 298.825 224.646,299.388 224.751,300.352 224.768 L 302.103 224.800 301.827 227.700 C 301.674 229.295,300.911 234.353,300.129 238.940 C 298.347 249.404,298.531 249.693,305.799 247.811 C 314.919 245.450,325.508 233.131,330.735 218.800 C 331.176 217.590,332.068 215.220,332.716 213.533 C 335.317 206.765,335.722 204.418,335.221 199.039 C 334.741 193.896,333.728 187.819,333.173 186.762 C 332.967 186.370,333.039 185.829,333.359 185.362 C 333.646 184.943,333.991 184.150,334.127 183.600 C 334.262 183.050,335.292 181.340,336.415 179.800 C 339.225 175.948,341.266 171.783,342.994 166.378 C 343.799 163.860,345.184 159.656,346.071 157.036 C 346.959 154.415,348.402 149.825,349.278 146.836 C 350.155 143.846,351.201 140.320,351.603 139.000 C 355.287 126.911,356.650 121.870,360.203 107.200 C 364.262 90.442,364.105 91.289,364.065 86.451 C 364.005 79.149,362.983 77.187,358.605 75.973 C 355.379 75.078,353.841 75.053,352.293 75.868 M344.789 78.021 C 344.547 78.472,344.430 79.147,344.528 79.521 C 344.687 80.123,344.712 80.118,344.754 79.476 C 344.779 79.078,344.980 78.864,345.200 79.000 C 345.427 79.140,345.600 78.804,345.600 78.224 C 345.600 76.986,345.373 76.929,344.789 78.021 M375.200 77.557 C 375.200 77.827,375.020 77.936,374.800 77.800 C 374.580 77.664,374.400 77.872,374.400 78.262 C 374.400 78.928,374.441 78.930,375.076 78.295 C 375.448 77.923,375.628 77.495,375.476 77.343 C 375.324 77.191,375.200 77.287,375.200 77.557 M343.750 81.387 C 343.626 81.710,343.617 82.205,343.731 82.487 C 343.857 82.800,343.949 82.718,343.968 82.276 C 343.986 81.878,344.180 81.664,344.400 81.800 C 344.620 81.936,344.800 81.767,344.800 81.424 C 344.800 80.634,344.049 80.608,343.750 81.387 M343.600 84.200 C 343.600 84.530,343.870 84.800,344.200 84.800 C 344.530 84.800,344.800 84.530,344.800 84.200 C 344.800 83.870,344.530 83.600,344.200 83.600 C 343.870 83.600,343.600 83.870,343.600 84.200 M372.000 86.000 C 372.000 86.440,372.180 86.800,372.400 86.800 C 372.620 86.800,372.800 86.440,372.800 86.000 C 372.800 85.560,372.620 85.200,372.400 85.200 C 372.180 85.200,372.000 85.560,372.000 86.000 M343.000 86.600 C 343.000 87.150,343.225 87.600,343.500 87.600 C 343.775 87.600,344.000 87.150,344.000 86.600 C 344.000 86.050,343.775 85.600,343.500 85.600 C 343.225 85.600,343.000 86.050,343.000 86.600 M342.110 89.595 C 342.074 90.073,342.295 90.400,342.654 90.400 C 343.003 90.400,343.204 90.118,343.129 89.733 C 342.940 88.758,342.181 88.655,342.110 89.595 M341.491 91.843 C 341.104 92.229,341.642 93.200,342.243 93.200 C 342.549 93.200,342.800 93.042,342.800 92.849 C 342.800 92.350,341.773 91.560,341.491 91.843 M341.335 95.475 C 341.193 95.874,340.993 96.353,340.890 96.540 C 340.787 96.727,341.085 96.676,341.552 96.426 C 342.469 95.935,342.638 95.394,341.997 94.998 C 341.776 94.861,341.478 95.076,341.335 95.475 M340.400 98.167 C 340.400 98.839,340.619 99.200,341.028 99.200 C 341.445 99.200,341.613 98.908,341.528 98.331 C 341.339 97.051,340.400 96.914,340.400 98.167 M339.885 99.849 C 339.459 100.274,339.542 101.917,340.003 102.202 C 340.224 102.339,340.501 102.203,340.617 101.899 C 340.885 101.201,340.266 99.468,339.885 99.849 M338.800 104.000 C 338.800 104.587,339.067 104.800,339.800 104.800 C 340.991 104.800,341.107 104.192,340.026 103.614 C 338.951 103.039,338.800 103.086,338.800 104.000 M338.998 106.600 C 338.857 107.040,338.575 107.713,338.371 108.095 C 337.816 109.134,337.904 110.901,338.500 110.690 C 338.775 110.592,338.962 110.007,338.915 109.389 C 338.867 108.739,339.101 108.068,339.471 107.797 C 339.968 107.434,340.016 107.157,339.683 106.564 C 339.264 105.818,339.248 105.819,338.998 106.600 M364.400 110.176 C 364.400 110.493,364.580 110.864,364.800 111.000 C 365.020 111.136,365.200 110.877,365.200 110.424 C 365.200 109.971,365.020 109.600,364.800 109.600 C 364.580 109.600,364.400 109.859,364.400 110.176 M337.206 112.014 C 337.216 113.551,337.847 114.312,338.197 113.208 C 338.387 112.610,338.269 112.097,337.841 111.670 C 337.253 111.082,337.201 111.110,337.206 112.014 M336.698 115.100 C 336.452 115.592,336.578 116.400,336.900 116.400 C 337.065 116.400,337.380 116.400,337.600 116.400 C 337.820 116.400,338.000 116.040,338.000 115.600 C 338.000 114.840,337.015 114.462,336.698 115.100 M336.400 118.376 C 336.400 119.023,336.220 119.664,336.000 119.800 C 335.397 120.172,335.491 122.505,336.100 122.290 C 336.375 122.192,336.562 121.607,336.515 120.989 C 336.467 120.343,336.700 119.669,337.065 119.402 C 337.488 119.092,337.607 118.651,337.422 118.070 C 337.024 116.814,336.400 117.001,336.400 118.376 M361.200 120.424 C 361.200 120.877,361.380 121.136,361.600 121.000 C 361.820 120.864,362.000 120.493,362.000 120.176 C 362.000 119.859,361.820 119.600,361.600 119.600 C 361.380 119.600,361.200 119.971,361.200 120.424 M190.500 123.882 C 190.005 123.978,189.600 124.223,189.600 124.428 C 189.600 124.946,190.694 124.895,191.023 124.362 C 191.172 124.122,191.723 124.007,192.247 124.107 C 192.771 124.207,193.200 124.134,193.200 123.945 C 193.200 123.594,192.125 123.569,190.500 123.882 M193.600 124.400 C 193.600 124.620,193.971 124.800,194.424 124.800 C 194.877 124.800,195.136 124.620,195.000 124.400 C 194.864 124.180,194.493 124.000,194.176 124.000 C 193.859 124.000,193.600 124.180,193.600 124.400 M186.000 125.000 C 185.656 125.415,185.641 125.600,185.951 125.600 C 186.198 125.600,186.400 125.432,186.400 125.227 C 186.400 125.021,186.895 124.778,187.500 124.687 L 188.600 124.520 187.549 124.460 C 186.971 124.427,186.274 124.670,186.000 125.000 M185.600 133.577 C 182.342 134.241,174.900 138.951,167.580 144.982 C 165.700 146.532,163.630 148.189,162.980 148.665 C 162.331 149.141,160.990 150.170,160.000 150.952 C 156.214 153.941,141.291 165.364,130.934 173.200 C 129.916 173.970,127.895 175.603,126.442 176.830 C 124.989 178.056,122.462 180.093,120.826 181.355 C 119.190 182.618,116.580 184.788,115.026 186.178 C 113.472 187.568,111.628 189.182,110.929 189.764 C 104.901 194.784,102.337 205.396,105.524 212.138 C 111.978 225.791,122.829 225.426,139.767 210.985 C 141.325 209.656,143.140 208.158,143.800 207.655 C 146.729 205.424,164.097 188.502,170.132 182.000 C 172.072 179.910,174.276 177.536,175.030 176.723 C 175.783 175.911,176.400 175.139,176.400 175.007 C 176.400 174.875,177.771 173.199,179.446 171.283 C 181.974 168.393,183.749 166.120,187.493 160.978 C 187.834 160.509,187.992 160.260,190.609 156.050 C 193.100 152.044,194.128 147.888,193.193 145.600 C 193.148 145.490,193.141 145.018,193.178 144.551 C 193.214 144.083,192.945 143.402,192.580 143.037 C 192.024 142.481,191.957 141.854,192.172 139.195 C 192.606 133.826,191.023 132.473,185.600 133.577 M356.000 136.200 C 356.000 136.567,356.194 136.802,356.430 136.723 C 356.667 136.644,356.860 136.409,356.860 136.200 C 356.860 135.991,356.667 135.756,356.430 135.677 C 356.194 135.598,356.000 135.833,356.000 136.200 M354.400 142.000 C 354.400 142.440,354.580 142.800,354.800 142.800 C 355.020 142.800,355.200 142.440,355.200 142.000 C 355.200 141.560,355.020 141.200,354.800 141.200 C 354.580 141.200,354.400 141.560,354.400 142.000 M353.600 144.400 C 353.600 144.840,353.780 145.200,354.000 145.200 C 354.220 145.200,354.400 144.840,354.400 144.400 C 354.400 143.960,354.220 143.600,354.000 143.600 C 353.780 143.600,353.600 143.960,353.600 144.400 M273.862 146.900 C 274.123 147.324,275.600 147.275,275.600 146.842 C 275.600 146.646,275.167 146.511,274.638 146.542 C 274.109 146.574,273.760 146.735,273.862 146.900 M352.000 149.953 C 352.000 150.996,352.616 151.377,352.692 150.380 C 352.723 149.960,352.581 149.512,352.375 149.384 C 352.169 149.257,352.000 149.513,352.000 149.953 M144.200 154.000 C 143.549 154.719,143.543 154.800,144.138 154.800 C 144.502 154.800,144.800 154.519,144.800 154.176 C 144.800 153.833,144.980 153.664,145.200 153.800 C 145.420 153.936,145.600 153.857,145.600 153.624 C 145.600 152.961,144.993 153.124,144.200 154.000 M269.000 156.646 C 264.204 157.809,260.715 159.850,250.400 167.529 C 243.288 172.823,239.570 175.459,237.552 176.636 C 237.142 176.875,236.475 177.370,236.071 177.736 C 235.667 178.101,235.154 178.400,234.930 178.400 C 234.707 178.400,234.205 178.752,233.816 179.182 C 233.427 179.612,231.555 181.007,229.656 182.282 C 227.758 183.557,224.288 186.130,221.945 188.000 C 213.761 194.533,207.575 199.407,206.348 200.290 C 205.668 200.779,203.917 202.215,202.456 203.481 C 189.438 214.763,186.631 218.382,185.564 225.255 C 184.896 229.560,185.641 233.185,188.345 238.780 C 189.369 240.899,189.237 241.378,188.173 239.402 C 187.758 238.631,187.273 238.000,187.095 238.000 C 186.700 238.000,187.330 239.230,188.909 241.544 C 189.822 242.882,190.186 243.161,190.476 242.744 C 190.746 242.354,190.787 242.436,190.621 243.033 C 190.462 243.603,190.675 244.105,191.294 244.622 C 191.792 245.038,191.975 245.123,191.700 244.809 C 190.510 243.454,191.342 243.367,193.700 244.599 C 198.650 247.187,202.281 247.369,206.926 245.263 C 209.276 244.197,215.095 240.692,215.600 240.038 C 215.710 239.896,216.610 239.160,217.600 238.402 C 225.602 232.281,241.216 216.431,250.487 205.018 C 251.746 203.468,253.596 201.273,254.599 200.140 C 255.601 199.006,256.890 197.386,257.462 196.540 C 258.035 195.693,259.173 194.190,259.991 193.200 C 260.810 192.210,262.787 189.420,264.386 187.000 C 265.984 184.580,267.613 182.137,268.005 181.572 C 269.567 179.318,271.543 174.832,272.308 171.800 C 272.752 170.040,273.617 167.520,274.231 166.200 C 277.205 159.807,274.716 155.260,269.000 156.646 M349.600 158.200 C 349.600 158.530,349.780 158.800,350.000 158.800 C 350.220 158.800,350.400 158.530,350.400 158.200 C 350.400 157.870,350.220 157.600,350.000 157.600 C 349.780 157.600,349.600 157.870,349.600 158.200 M348.800 160.176 C 348.800 160.493,348.980 160.864,349.200 161.000 C 349.420 161.136,349.600 160.877,349.600 160.424 C 349.600 159.971,349.420 159.600,349.200 159.600 C 348.980 159.600,348.800 159.859,348.800 160.176 M346.000 168.167 C 346.000 168.515,346.285 168.800,346.633 168.800 C 347.340 168.800,347.217 167.939,346.475 167.692 C 346.214 167.605,346.000 167.818,346.000 168.167 M324.206 171.610 C 324.320 171.794,324.247 172.047,324.045 172.172 C 323.386 172.580,323.557 176.391,324.223 176.136 C 324.869 175.888,325.025 174.000,324.400 174.000 C 324.180 174.000,324.000 173.820,324.000 173.600 C 324.000 173.380,324.360 173.200,324.800 173.200 C 325.868 173.200,325.868 171.763,324.799 171.484 C 324.359 171.369,324.092 171.425,324.206 171.610 M344.400 174.449 C 344.400 175.158,344.499 175.216,345.000 174.800 C 345.330 174.526,345.600 174.144,345.600 173.951 C 345.600 173.758,345.330 173.600,345.000 173.600 C 344.655 173.600,344.400 173.961,344.400 174.449 M225.855 177.455 C 225.268 178.041,224.870 178.603,224.970 178.703 C 225.070 178.803,225.632 178.405,226.218 177.818 C 226.805 177.232,227.203 176.670,227.103 176.570 C 227.003 176.470,226.441 176.868,225.855 177.455 M323.070 177.761 C 322.845 178.349,323.103 178.800,323.667 178.800 C 323.850 178.800,324.000 178.440,324.000 178.000 C 324.000 177.083,323.391 176.926,323.070 177.761 M342.800 180.200 C 342.800 180.796,342.972 181.141,343.200 181.000 C 343.420 180.864,343.600 180.504,343.600 180.200 C 343.600 179.896,343.420 179.536,343.200 179.400 C 342.972 179.259,342.800 179.604,342.800 180.200 M322.047 179.900 C 322.185 180.772,321.910 181.262,321.100 181.588 L 320.200 181.949 321.100 181.975 C 321.595 181.989,322.000 181.820,322.000 181.600 C 322.000 181.380,322.221 181.245,322.491 181.300 C 322.760 181.355,323.043 180.995,323.118 180.500 C 323.211 179.891,323.053 179.600,322.628 179.600 C 322.283 179.600,322.021 179.735,322.047 179.900 M319.043 181.814 C 318.705 182.152,318.332 182.422,318.214 182.414 C 317.373 182.358,317.200 182.493,317.200 183.200 C 317.200 183.640,317.380 184.000,317.600 184.000 C 317.820 184.000,318.000 183.820,318.000 183.600 C 318.000 183.380,318.225 183.199,318.500 183.197 C 318.775 183.195,319.208 182.745,319.462 182.197 C 319.997 181.044,319.901 180.956,319.043 181.814 M341.200 188.176 C 341.200 188.739,341.380 189.200,341.600 189.200 C 341.820 189.200,342.000 188.851,342.000 188.424 C 342.000 187.997,341.820 187.536,341.600 187.400 C 341.373 187.260,341.200 187.596,341.200 188.176 M204.643 195.433 C 204.267 196.411,204.349 196.508,205.000 195.857 C 205.680 195.177,205.767 194.800,205.243 194.800 C 205.046 194.800,204.776 195.085,204.643 195.433 M341.200 201.200 C 341.200 201.860,341.380 202.400,341.600 202.400 C 341.820 202.400,342.000 201.860,342.000 201.200 C 342.000 200.540,341.820 200.000,341.600 200.000 C 341.380 200.000,341.200 200.540,341.200 201.200 M339.600 212.800 C 339.600 213.240,339.769 213.600,339.975 213.600 C 340.181 213.600,340.323 213.240,340.290 212.800 C 340.257 212.360,340.088 212.000,339.915 212.000 C 339.742 212.000,339.600 212.360,339.600 212.800 M294.200 237.081 C 292.660 238.023,290.680 239.341,289.800 240.011 C 287.750 241.570,285.472 243.058,283.200 244.321 C 282.210 244.871,281.310 245.439,281.200 245.584 C 281.090 245.729,279.830 246.513,278.400 247.328 C 276.970 248.142,274.720 249.615,273.400 250.600 C 272.080 251.586,270.550 252.699,270.000 253.074 C 269.450 253.449,268.100 254.497,267.000 255.402 C 265.900 256.308,264.100 257.727,263.000 258.555 C 261.900 259.383,260.370 260.638,259.600 261.344 C 258.830 262.050,257.318 263.297,256.240 264.115 C 251.171 267.964,233.285 283.898,228.856 288.511 C 220.462 297.252,218.835 304.579,223.245 313.775 C 224.157 315.677,224.176 315.833,223.400 315.057 C 223.070 314.727,222.800 314.174,222.800 313.829 C 222.800 313.483,222.664 313.200,222.498 313.200 C 222.331 313.200,221.952 312.650,221.654 311.977 C 221.356 311.304,221.030 310.837,220.928 310.938 C 220.399 311.468,225.520 319.485,227.505 321.235 L 228.600 322.200 227.700 321.174 C 227.205 320.610,226.800 319.935,226.800 319.674 C 226.800 319.413,226.620 319.200,226.400 319.200 C 226.180 319.200,226.000 318.992,226.000 318.738 C 226.000 318.456,226.274 318.524,226.706 318.915 C 234.305 325.792,244.487 322.145,260.538 306.800 C 264.756 302.767,274.156 293.179,275.636 291.400 C 276.368 290.520,277.875 288.803,278.984 287.584 C 284.297 281.746,291.814 272.342,296.027 266.265 C 298.665 262.459,298.484 262.729,301.694 257.800 C 305.926 251.302,305.869 251.183,299.600 253.413 C 298.092 253.949,291.062 255.699,287.800 256.349 C 286.700 256.569,284.360 256.866,282.600 257.009 L 279.400 257.270 281.800 255.986 C 288.213 252.554,293.112 247.074,296.026 240.076 C 297.946 235.464,297.646 234.973,294.200 237.081 " stroke="none" fill="#d88bc7" fill-rule="evenodd"></path><path id="path1" d="M328.480 0.480 C 327.900 1.060,327.840 1.746,328.400 1.400 C 328.643 1.250,328.798 1.828,328.794 2.876 C 328.789 4.137,328.684 4.439,328.400 4.000 C 328.134 3.589,328.010 4.572,328.006 7.124 C 328.002 9.671,327.864 10.763,327.571 10.582 C 327.280 10.403,327.161 11.138,327.202 12.858 C 327.284 16.291,327.261 16.485,326.800 16.200 C 326.556 16.049,326.400 16.663,326.400 17.776 C 326.400 18.779,326.580 19.600,326.800 19.600 C 327.020 19.600,327.200 20.230,327.200 21.000 C 327.200 21.770,327.020 22.400,326.800 22.400 C 326.580 22.400,326.400 22.925,326.400 23.567 C 326.400 24.208,326.175 24.824,325.900 24.935 C 325.500 25.096,325.500 25.143,325.900 25.168 C 326.505 25.207,326.604 28.800,326.000 28.800 C 325.769 28.800,325.600 30.067,325.600 31.800 C 325.600 33.533,325.431 34.800,325.200 34.800 C 324.980 34.800,324.797 35.295,324.794 35.900 C 324.791 36.505,324.623 37.260,324.423 37.577 C 324.175 37.968,324.257 38.300,324.678 38.607 C 325.321 39.078,325.065 41.011,324.413 40.608 C 324.232 40.496,324.013 41.144,323.927 42.047 C 323.823 43.140,323.943 43.757,324.285 43.888 C 324.916 44.130,324.999 48.230,324.381 48.612 C 324.090 48.792,324.089 49.025,324.377 49.372 C 324.606 49.648,324.660 50.031,324.497 50.224 C 324.333 50.416,324.515 50.333,324.900 50.038 C 325.515 49.567,325.600 49.605,325.600 50.351 C 325.600 50.818,325.780 51.200,326.000 51.200 C 326.220 51.200,326.400 51.481,326.400 51.824 C 326.400 52.206,326.207 52.338,325.900 52.165 C 325.500 51.939,325.500 51.990,325.900 52.421 C 326.175 52.718,326.400 53.284,326.400 53.680 C 326.400 54.513,326.834 54.606,327.520 53.920 C 327.893 53.547,328.000 53.685,328.000 54.544 C 328.000 55.284,328.154 55.552,328.468 55.358 C 328.785 55.162,328.851 55.289,328.673 55.755 C 328.515 56.166,328.569 56.343,328.808 56.195 C 329.027 56.060,329.475 56.218,329.803 56.546 C 330.530 57.272,330.583 57.740,329.900 57.394 C 329.625 57.255,329.712 57.397,330.094 57.710 C 330.475 58.023,330.670 58.396,330.527 58.540 C 330.384 58.683,330.465 58.800,330.706 58.800 C 330.948 58.800,331.260 59.160,331.400 59.600 C 331.540 60.040,331.922 60.400,332.251 60.400 C 332.579 60.400,332.736 60.220,332.600 60.000 C 332.086 59.169,332.958 59.647,334.060 60.800 C 334.691 61.460,335.436 62.000,335.715 62.000 C 335.995 62.000,336.483 62.360,336.800 62.800 C 337.117 63.240,337.697 63.600,338.088 63.600 C 338.480 63.600,338.800 63.780,338.800 64.000 C 338.800 64.220,339.196 64.400,339.680 64.400 C 340.374 64.400,340.457 64.503,340.070 64.890 C 339.683 65.277,339.413 65.276,338.790 64.887 C 338.356 64.615,338.000 64.541,338.000 64.721 C 338.000 64.902,338.973 65.505,340.163 66.062 C 341.576 66.723,342.255 66.888,342.121 66.537 C 342.001 66.225,342.184 66.000,342.557 66.000 C 342.911 66.000,343.200 66.180,343.200 66.400 C 343.200 66.620,343.740 66.800,344.400 66.800 C 345.223 66.800,345.600 66.997,345.600 67.427 C 345.600 67.872,345.832 67.980,346.400 67.800 C 347.100 67.578,347.200 67.728,347.200 68.997 C 347.200 69.862,347.039 70.347,346.800 70.200 C 346.574 70.061,346.400 70.385,346.400 70.943 C 346.400 71.488,346.625 72.038,346.900 72.167 C 347.300 72.353,347.300 72.447,346.900 72.633 C 346.625 72.762,346.400 73.107,346.400 73.400 C 346.400 73.693,346.175 74.038,345.900 74.167 C 345.500 74.353,345.500 74.447,345.900 74.633 C 346.494 74.911,346.574 76.000,346.000 76.000 C 345.780 76.000,345.600 76.731,345.600 77.624 C 345.600 78.517,345.462 79.162,345.293 79.058 C 345.125 78.954,344.782 79.303,344.531 79.834 C 344.280 80.365,344.238 80.800,344.438 80.800 C 344.637 80.800,344.800 81.081,344.800 81.424 C 344.800 81.767,344.620 81.936,344.400 81.800 C 344.180 81.664,344.000 81.729,344.000 81.944 C 344.000 82.159,343.891 82.619,343.757 82.967 C 343.598 83.382,343.735 83.600,344.157 83.600 C 344.511 83.600,344.800 83.870,344.800 84.200 C 344.800 84.530,344.541 84.800,344.225 84.800 C 343.792 84.800,343.706 85.144,343.877 86.200 C 344.064 87.351,343.981 87.600,343.408 87.600 C 342.828 87.600,342.755 87.835,342.974 89.000 C 343.182 90.109,343.108 90.400,342.618 90.400 C 342.273 90.400,342.000 90.743,342.000 91.176 C 342.000 91.603,341.820 92.064,341.600 92.200 C 341.041 92.545,341.087 95.225,341.650 95.100 C 342.605 94.888,342.409 96.013,341.412 96.467 C 340.543 96.863,340.468 97.006,340.980 97.293 C 341.785 97.744,341.787 99.200,340.983 99.200 C 340.515 99.200,340.394 99.564,340.483 100.700 C 340.564 101.734,340.445 102.169,340.100 102.100 C 339.387 101.957,339.479 103.468,340.200 103.745 C 341.156 104.111,340.895 104.800,339.800 104.800 C 339.057 104.800,338.800 105.012,338.800 105.624 C 338.800 106.077,338.961 106.348,339.158 106.226 C 339.831 105.810,340.066 107.363,339.403 107.847 C 338.966 108.167,338.844 108.635,339.017 109.325 C 339.212 110.103,339.073 110.440,338.409 110.795 C 337.734 111.156,337.647 111.375,338.007 111.809 C 338.264 112.118,338.344 112.746,338.189 113.234 C 337.973 113.916,337.837 113.986,337.562 113.553 C 337.302 113.141,337.211 113.230,337.206 113.900 C 337.203 114.395,337.380 114.800,337.600 114.800 C 337.820 114.800,338.000 115.160,338.000 115.600 C 338.000 116.316,337.584 116.587,336.700 116.447 C 336.535 116.421,336.400 116.580,336.400 116.800 C 336.400 117.020,336.568 117.200,336.773 117.200 C 337.523 117.200,337.722 118.921,337.031 119.427 C 336.569 119.765,336.441 120.224,336.615 120.919 C 336.796 121.639,336.671 122.032,336.175 122.310 C 335.529 122.671,335.527 122.761,336.141 123.638 C 336.837 124.631,337.017 125.382,336.481 125.050 C 335.703 124.569,335.391 125.454,335.863 126.800 C 336.134 127.570,336.365 128.097,336.377 127.971 C 336.420 127.541,342.710 102.603,343.331 100.400 C 350.920 73.508,350.742 73.793,358.605 75.973 C 362.983 77.187,364.005 79.149,364.065 86.451 C 364.105 91.289,364.262 90.442,360.203 107.200 C 356.650 121.870,355.287 126.911,351.603 139.000 C 351.201 140.320,350.155 143.846,349.278 146.836 C 348.402 149.825,346.959 154.415,346.071 157.036 C 345.184 159.656,343.799 163.860,342.994 166.378 C 341.266 171.783,339.225 175.948,336.415 179.800 C 335.292 181.340,334.262 183.050,334.127 183.600 C 333.991 184.150,333.646 184.943,333.359 185.362 C 333.039 185.829,332.967 186.370,333.173 186.762 C 333.728 187.819,334.741 193.896,335.221 199.039 C 335.722 204.418,335.317 206.765,332.716 213.533 C 332.068 215.220,331.176 217.590,330.735 218.800 C 325.508 233.131,314.919 245.450,305.799 247.811 C 298.531 249.693,298.347 249.404,300.129 238.940 C 300.911 234.353,301.674 229.295,301.827 227.700 L 302.103 224.800 300.352 224.753 C 298.077 224.691,297.430 224.793,297.267 225.237 C 297.193 225.436,296.788 225.600,296.367 225.600 C 295.945 225.600,295.600 225.780,295.600 226.000 C 295.600 226.220,295.347 226.400,295.038 226.400 C 294.281 226.400,291.200 228.065,291.200 228.474 C 291.200 228.653,290.840 228.800,290.400 228.800 C 289.960 228.800,289.600 228.980,289.600 229.200 C 289.600 229.420,289.364 229.600,289.075 229.600 C 288.787 229.600,288.164 229.960,287.692 230.400 C 287.220 230.840,286.646 231.200,286.417 231.200 C 286.188 231.200,286.000 231.380,286.000 231.600 C 286.000 231.820,285.730 232.000,285.400 232.000 C 285.070 232.000,284.800 232.270,284.800 232.600 C 284.800 232.930,284.664 233.200,284.498 233.200 C 284.332 233.200,283.472 233.875,282.587 234.700 C 281.702 235.525,280.308 236.704,279.489 237.320 C 278.670 237.937,277.997 238.747,277.994 239.120 C 277.989 239.705,277.934 239.716,277.600 239.200 C 277.286 238.715,277.211 238.772,277.206 239.500 C 277.202 240.045,276.955 240.400,276.578 240.400 C 276.236 240.400,275.381 240.939,274.678 241.598 C 273.975 242.257,273.254 242.797,273.076 242.798 C 272.898 242.799,272.864 242.980,273.000 243.200 C 273.136 243.420,272.882 243.600,272.436 243.600 C 271.880 243.600,271.697 243.788,271.855 244.200 C 272.008 244.599,271.836 244.804,271.343 244.812 C 270.934 244.819,270.150 245.393,269.600 246.089 C 267.335 248.954,263.849 252.170,253.069 261.340 C 252.591 261.746,251.504 262.646,250.653 263.340 C 249.802 264.033,248.870 264.825,248.582 265.100 C 248.293 265.375,247.950 265.600,247.818 265.600 C 247.687 265.600,246.756 266.423,245.751 267.428 C 244.745 268.434,243.820 269.154,243.695 269.028 C 243.569 268.903,243.542 268.748,243.633 268.685 C 243.999 268.432,252.758 260.426,255.587 257.759 C 257.244 256.197,259.860 253.794,261.400 252.419 C 262.940 251.044,264.625 249.173,265.144 248.260 C 265.664 247.347,266.249 246.540,266.444 246.467 C 266.640 246.393,266.800 245.918,266.800 245.409 C 266.800 244.486,267.749 243.798,268.436 244.222 C 268.636 244.346,268.800 244.257,268.800 244.024 C 268.800 243.791,268.530 243.600,268.200 243.600 C 267.527 243.600,267.382 242.582,268.000 242.200 C 268.220 242.064,268.400 241.423,268.400 240.776 C 268.400 240.105,268.615 239.597,268.900 239.594 C 269.236 239.590,269.203 239.456,268.800 239.186 C 268.272 238.833,268.280 238.723,268.863 238.276 C 269.354 237.898,269.423 237.585,269.130 237.061 C 268.800 236.471,268.470 236.867,267.122 239.477 C 264.243 245.053,256.452 253.546,252.278 255.658 C 250.521 256.548,247.944 258.818,241.678 264.997 C 228.105 278.382,227.480 279.021,225.465 281.556 C 224.401 282.895,221.813 285.568,219.715 287.496 C 217.617 289.423,214.888 292.064,213.650 293.364 C 210.987 296.161,205.631 301.816,204.852 302.651 C 203.753 303.830,204.690 303.547,206.041 302.292 C 206.806 301.581,208.505 300.101,209.816 299.002 C 211.127 297.903,213.876 295.498,215.924 293.659 C 220.171 289.845,220.273 289.830,219.409 293.164 C 217.700 299.761,219.570 311.969,222.468 313.133 C 222.651 313.207,222.800 313.535,222.800 313.862 C 222.800 314.189,223.070 314.727,223.400 315.057 C 224.176 315.833,224.157 315.677,223.245 313.775 C 218.835 304.579,220.462 297.252,228.856 288.511 C 233.285 283.898,251.171 267.964,256.240 264.115 C 257.318 263.297,258.830 262.050,259.600 261.344 C 260.370 260.638,261.900 259.383,263.000 258.555 C 264.100 257.727,265.900 256.308,267.000 255.402 C 268.100 254.497,269.450 253.449,270.000 253.074 C 270.550 252.699,272.080 251.586,273.400 250.600 C 274.720 249.615,276.970 248.142,278.400 247.328 C 279.830 246.513,281.090 245.729,281.200 245.584 C 281.310 245.439,282.210 244.869,283.200 244.317 C 285.962 242.776,287.932 241.503,289.329 240.358 C 290.028 239.784,292.085 238.398,293.900 237.277 L 297.200 235.239 297.195 236.320 C 297.170 241.827,289.176 252.039,281.800 255.986 L 279.400 257.270 282.600 257.009 C 284.360 256.866,286.700 256.569,287.800 256.349 C 291.062 255.699,298.092 253.949,299.600 253.413 C 305.869 251.183,305.926 251.302,301.694 257.800 C 298.484 262.729,298.665 262.459,296.027 266.265 C 291.814 272.342,284.297 281.746,278.984 287.584 C 277.875 288.803,276.368 290.520,275.636 291.400 C 274.156 293.179,264.756 302.767,260.538 306.800 C 244.487 322.145,234.305 325.792,226.706 318.915 C 226.274 318.524,226.000 318.456,226.000 318.738 C 226.000 318.992,226.180 319.200,226.400 319.200 C 226.620 319.200,226.800 319.434,226.800 319.721 C 226.800 320.636,230.124 323.646,232.413 324.804 C 238.780 328.025,244.400 328.646,252.200 326.990 C 259.071 325.530,266.371 319.791,287.739 299.048 C 293.206 293.742,298.051 289.260,298.506 289.088 C 298.961 288.917,299.888 288.133,300.566 287.346 C 301.245 286.559,302.385 285.310,303.100 284.571 C 303.815 283.831,304.400 282.951,304.400 282.613 C 304.400 282.276,304.572 282.000,304.782 282.000 C 305.234 282.000,307.200 280.098,307.200 279.660 C 307.200 279.493,307.785 278.708,308.500 277.915 C 310.720 275.454,311.200 274.808,311.200 274.284 C 311.200 274.005,311.560 273.517,312.000 273.200 C 312.440 272.883,312.800 272.383,312.800 272.088 C 312.800 271.785,313.001 271.677,313.262 271.838 C 313.527 272.002,313.616 271.949,313.470 271.713 C 313.331 271.488,313.569 270.897,314.000 270.400 C 314.431 269.903,314.687 269.340,314.568 269.148 C 314.450 268.957,314.600 268.800,314.902 268.800 C 315.388 268.800,316.389 267.294,317.760 264.503 C 318.002 264.010,318.335 263.605,318.500 263.603 C 318.665 263.601,318.800 263.280,318.800 262.888 C 318.800 262.497,319.160 261.917,319.600 261.600 C 320.040 261.283,320.400 260.703,320.400 260.312 C 320.400 259.920,320.580 259.600,320.800 259.600 C 321.020 259.600,321.200 259.071,321.200 258.424 C 321.200 257.777,321.380 257.136,321.600 257.000 C 321.820 256.864,322.003 256.178,322.006 255.476 C 322.011 254.505,322.105 254.343,322.400 254.800 C 322.694 255.255,322.789 255.086,322.794 254.100 C 322.797 253.385,322.980 252.800,323.200 252.800 C 323.422 252.800,323.600 251.733,323.600 250.400 C 323.600 249.067,323.778 248.000,324.000 248.000 C 324.240 248.000,324.400 246.403,324.400 244.008 L 324.400 240.016 326.200 238.357 C 327.236 237.402,328.003 236.338,328.006 235.849 C 328.011 235.223,328.102 235.142,328.355 235.540 C 328.610 235.943,328.837 235.765,329.246 234.840 C 329.548 234.158,329.931 233.600,330.098 233.600 C 330.264 233.600,330.400 233.229,330.400 232.776 C 330.400 232.323,330.580 232.064,330.800 232.200 C 331.020 232.336,331.200 232.167,331.200 231.824 C 331.200 231.481,331.380 231.200,331.600 231.200 C 331.820 231.200,332.014 230.795,332.032 230.300 C 332.049 229.805,332.153 229.623,332.264 229.896 C 332.603 230.735,333.649 229.352,333.687 228.016 C 333.706 227.362,333.874 226.922,334.060 227.037 C 334.396 227.245,334.556 226.668,334.430 225.700 C 334.345 225.050,335.073 225.050,335.335 225.700 C 335.446 225.975,335.551 225.806,335.568 225.324 C 335.586 224.842,335.780 224.336,336.000 224.200 C 336.220 224.064,336.400 223.513,336.400 222.976 C 336.400 222.439,336.580 222.000,336.800 222.000 C 337.020 222.000,337.203 221.505,337.206 220.900 C 337.211 220.043,337.298 219.932,337.600 220.400 C 337.902 220.868,337.989 220.757,337.994 219.900 C 337.997 219.295,338.180 218.800,338.400 218.800 C 338.620 218.800,338.800 218.248,338.800 217.574 C 338.800 216.899,338.998 215.978,339.240 215.525 C 339.560 214.928,339.560 214.778,339.240 214.975 C 338.998 215.125,338.800 215.057,338.800 214.824 C 338.800 214.591,338.980 214.400,339.200 214.400 C 339.420 214.400,339.600 213.860,339.600 213.200 C 339.600 212.540,339.780 212.000,340.000 212.000 C 340.220 212.000,340.400 211.651,340.400 211.224 C 340.400 210.797,340.580 210.336,340.800 210.200 C 341.020 210.064,341.200 208.469,341.200 206.656 C 341.200 204.626,341.384 203.176,341.680 202.880 C 342.053 202.507,342.053 202.400,341.680 202.400 C 341.413 202.400,341.200 201.867,341.200 201.200 C 341.200 200.540,341.380 200.000,341.600 200.000 C 341.847 200.000,342.000 197.933,342.000 194.600 C 342.000 191.267,341.847 189.200,341.600 189.200 C 341.380 189.200,341.200 188.739,341.200 188.176 C 341.200 187.596,341.373 187.260,341.600 187.400 C 341.820 187.536,342.000 187.367,342.000 187.024 C 342.000 186.681,341.820 186.400,341.600 186.400 C 341.380 186.400,341.200 186.130,341.200 185.800 C 341.200 185.470,341.425 185.197,341.700 185.194 C 342.068 185.189,342.057 185.097,341.657 184.844 C 341.279 184.604,341.249 184.417,341.557 184.226 C 341.801 184.076,342.000 183.513,342.000 182.976 C 342.000 182.439,342.180 182.000,342.400 182.000 C 342.620 182.000,342.800 181.359,342.800 180.576 C 342.800 179.729,342.962 179.253,343.200 179.400 C 343.432 179.544,343.600 179.149,343.600 178.457 C 343.600 177.802,343.825 177.176,344.100 177.065 C 344.500 176.904,344.500 176.857,344.100 176.832 C 343.825 176.814,343.600 176.519,343.600 176.176 C 343.600 175.833,343.780 175.664,344.000 175.800 C 344.233 175.944,344.400 175.537,344.400 174.824 C 344.400 173.966,344.592 173.600,345.043 173.600 C 345.528 173.600,345.625 173.356,345.438 172.611 C 345.244 171.835,345.321 171.671,345.795 171.853 C 346.264 172.034,346.400 171.770,346.400 170.676 C 346.400 169.901,346.625 169.176,346.900 169.065 C 347.199 168.944,347.118 168.850,346.700 168.832 C 346.315 168.814,346.000 168.511,346.000 168.157 C 346.000 167.750,346.220 167.599,346.600 167.745 C 347.063 167.922,347.209 167.636,347.240 166.487 C 347.276 165.155,347.313 165.104,347.600 166.000 C 347.867 166.834,347.928 166.701,347.966 165.200 C 348.000 163.881,348.116 163.560,348.400 164.000 C 348.702 164.468,348.789 164.357,348.794 163.500 C 348.797 162.895,348.607 162.400,348.371 162.400 C 348.136 162.400,348.210 162.133,348.536 161.807 C 348.862 161.481,349.034 160.851,348.918 160.407 C 348.799 159.953,348.902 159.600,349.153 159.600 C 349.399 159.600,349.600 159.150,349.600 158.600 C 349.600 158.050,349.780 157.600,350.000 157.600 C 350.220 157.600,350.400 157.240,350.400 156.800 C 350.400 156.360,350.580 156.000,350.800 156.000 C 351.020 156.000,351.200 155.640,351.200 155.200 C 351.200 154.760,351.020 154.400,350.800 154.400 C 350.076 154.400,350.383 153.698,351.200 153.484 C 351.640 153.369,352.000 153.067,352.000 152.814 C 352.000 152.560,351.820 152.464,351.600 152.600 C 350.817 153.084,351.216 151.914,352.100 151.134 C 352.595 150.697,352.775 150.453,352.500 150.593 C 352.177 150.757,352.000 150.547,352.000 150.000 C 352.000 149.534,352.180 149.264,352.400 149.400 C 352.627 149.540,352.800 149.204,352.800 148.624 C 352.800 148.061,352.980 147.600,353.200 147.600 C 353.420 147.600,353.600 146.700,353.600 145.600 C 353.600 144.500,353.780 143.600,354.000 143.600 C 354.220 143.600,354.400 143.060,354.400 142.400 C 354.400 141.101,355.027 140.762,355.324 141.900 C 355.439 142.340,355.524 142.201,355.554 141.524 C 355.579 140.932,355.782 140.335,356.004 140.197 C 356.227 140.060,356.370 139.437,356.322 138.814 C 356.275 138.190,356.478 137.388,356.775 137.031 C 357.238 136.472,357.222 136.417,356.657 136.634 C 356.205 136.807,356.000 136.671,356.000 136.200 C 356.000 135.733,356.206 135.594,356.646 135.762 C 357.173 135.965,357.260 135.788,357.115 134.805 C 356.995 133.982,357.107 133.600,357.469 133.600 C 357.800 133.600,358.002 133.110,358.006 132.300 C 358.011 131.314,358.106 131.145,358.400 131.600 C 358.684 132.039,358.789 131.745,358.794 130.500 C 358.798 129.413,358.980 128.798,359.300 128.794 C 359.639 128.790,359.607 128.651,359.200 128.363 C 358.748 128.044,358.724 127.889,359.100 127.736 C 359.375 127.625,359.600 127.088,359.600 126.543 C 359.600 125.985,359.774 125.661,360.000 125.800 C 360.220 125.936,360.400 125.687,360.400 125.247 C 360.400 124.807,360.580 124.336,360.800 124.200 C 361.020 124.064,361.200 123.593,361.200 123.153 C 361.200 122.713,361.020 122.464,360.800 122.600 C 360.580 122.736,360.400 122.657,360.400 122.424 C 360.400 122.191,360.580 122.000,360.800 122.000 C 361.020 122.000,361.200 121.500,361.200 120.888 C 361.200 120.240,361.530 119.539,361.991 119.206 C 362.574 118.786,362.653 118.553,362.291 118.318 C 361.975 118.113,361.942 117.893,362.200 117.700 C 362.935 117.148,363.600 115.622,363.600 114.485 C 363.600 113.866,363.825 113.118,364.100 112.821 C 364.500 112.390,364.500 112.339,364.100 112.565 C 363.800 112.734,363.600 112.615,363.600 112.266 C 363.600 111.947,363.856 111.587,364.169 111.467 C 364.517 111.334,364.654 110.929,364.522 110.424 C 364.290 109.537,364.979 109.274,365.370 110.100 C 365.501 110.375,365.521 109.880,365.415 109.000 C 365.281 107.889,365.340 107.583,365.605 108.000 C 365.816 108.330,366.007 108.510,366.031 108.400 C 366.054 108.290,366.161 107.570,366.267 106.800 C 366.374 106.030,366.627 105.340,366.831 105.267 C 367.034 105.193,367.200 104.328,367.200 103.343 C 367.200 102.251,367.356 101.649,367.600 101.800 C 367.836 101.946,368.003 101.503,368.006 100.724 C 368.011 99.722,368.107 99.546,368.400 100.000 C 368.684 100.439,368.789 100.145,368.794 98.900 C 368.798 97.813,368.980 97.198,369.300 97.194 C 369.639 97.190,369.607 97.051,369.200 96.763 C 368.748 96.444,368.724 96.289,369.100 96.136 C 369.375 96.025,369.600 95.408,369.600 94.767 C 369.600 94.125,369.762 93.600,369.961 93.600 C 370.524 93.600,371.200 91.263,371.200 89.317 C 371.200 88.243,371.356 87.649,371.600 87.800 C 372.011 88.054,372.149 87.548,372.016 86.273 C 371.975 85.873,372.321 85.215,372.787 84.812 C 373.398 84.282,373.489 84.020,373.116 83.870 C 372.721 83.712,372.717 83.656,373.100 83.632 C 373.382 83.614,373.600 83.076,373.600 82.400 C 373.600 81.740,373.780 81.200,374.000 81.200 C 374.220 81.200,374.400 80.379,374.400 79.376 C 374.400 78.373,374.557 77.650,374.749 77.768 C 374.941 77.887,375.403 77.184,375.777 76.205 L 376.456 74.427 386.128 74.251 C 391.448 74.155,396.745 73.951,397.900 73.799 L 400.000 73.523 400.000 36.761 L 400.000 0.000 364.480 0.000 C 337.387 0.000,328.846 0.114,328.480 0.480 M385.000 1.770 C 394.789 3.356,394.940 3.648,394.951 21.000 C 394.961 37.601,394.345 48.000,393.352 48.000 C 392.941 48.000,392.800 48.644,392.800 50.520 C 392.800 51.987,392.591 53.262,392.300 53.570 C 391.899 53.995,391.908 54.139,392.345 54.298 C 392.682 54.421,392.734 54.593,392.481 54.750 C 392.256 54.889,391.897 56.712,391.683 58.801 C 391.281 62.725,391.125 63.230,389.274 66.600 C 386.027 72.514,361.872 72.231,348.400 66.122 C 343.087 63.712,342.014 63.073,338.802 60.408 C 330.397 53.431,327.898 46.879,329.589 36.246 C 329.803 34.901,330.257 31.190,330.599 28.000 C 331.720 17.544,333.141 10.751,334.690 8.444 C 335.190 7.698,335.600 6.905,335.600 6.682 C 335.600 5.735,337.846 3.446,339.487 2.720 C 343.778 0.822,375.114 0.168,385.000 1.770 M341.600 65.600 C 341.600 65.820,341.330 66.000,341.000 66.000 C 340.670 66.000,340.400 65.820,340.400 65.600 C 340.400 65.380,340.670 65.200,341.000 65.200 C 341.330 65.200,341.600 65.380,341.600 65.600 M344.000 67.751 C 344.000 67.834,344.270 68.126,344.600 68.400 C 345.091 68.808,345.200 68.780,345.200 68.249 C 345.200 67.892,344.930 67.600,344.600 67.600 C 344.270 67.600,344.000 67.668,344.000 67.751 M342.800 92.824 C 342.800 93.031,342.530 93.200,342.200 93.200 C 341.581 93.200,341.405 92.728,341.856 92.278 C 342.175 91.958,342.800 92.319,342.800 92.824 M190.600 123.985 C 191.386 124.308,191.386 124.320,190.624 124.629 C 190.134 124.828,189.790 124.771,189.692 124.475 C 189.578 124.134,189.320 124.122,188.746 124.429 C 188.312 124.661,187.540 124.797,187.030 124.730 C 186.521 124.663,185.676 124.807,185.152 125.049 C 183.690 125.725,181.424 126.400,180.619 126.400 C 180.220 126.400,179.603 126.715,179.247 127.100 C 178.891 127.485,178.150 127.864,177.600 127.941 C 177.050 128.019,176.510 128.199,176.400 128.342 C 176.290 128.485,175.660 128.870,175.000 129.198 C 174.340 129.526,173.509 130.111,173.153 130.497 C 172.797 130.884,172.304 131.200,172.058 131.200 C 171.576 131.200,170.269 132.175,169.272 133.280 C 168.934 133.653,168.509 133.868,168.329 133.756 C 168.148 133.644,168.000 133.752,168.000 133.995 C 168.000 134.560,166.410 136.157,165.499 136.507 C 165.115 136.654,164.800 137.051,164.800 137.387 C 164.800 137.724,164.467 138.000,164.059 138.000 C 163.652 138.000,162.783 138.495,162.128 139.100 C 161.474 139.705,160.592 140.408,160.169 140.663 C 159.746 140.917,159.449 141.336,159.510 141.593 C 159.570 141.849,159.456 141.958,159.255 141.834 C 158.894 141.611,158.109 142.219,154.528 145.500 C 153.508 146.435,152.511 147.200,152.313 147.200 C 152.115 147.200,152.064 147.380,152.200 147.600 C 152.336 147.820,152.231 148.000,151.967 148.000 C 151.703 148.000,150.971 148.539,150.341 149.198 C 149.712 149.857,149.107 150.397,148.998 150.398 C 148.889 150.399,148.575 150.403,148.300 150.406 C 147.967 150.410,148.000 150.542,148.400 150.800 C 148.910 151.129,148.892 151.189,148.282 151.194 C 147.493 151.201,145.600 152.903,145.600 153.605 C 145.600 153.848,145.420 153.936,145.200 153.800 C 144.980 153.664,144.800 153.833,144.800 154.176 C 144.800 154.519,144.485 154.806,144.100 154.813 C 143.373 154.826,141.560 155.988,142.224 156.016 C 142.431 156.024,142.060 156.275,141.400 156.572 C 140.005 157.200,137.158 159.825,137.501 160.167 C 137.629 160.295,137.433 160.400,137.067 160.400 C 136.700 160.400,136.400 160.544,136.400 160.720 C 136.400 160.896,135.587 161.554,134.593 162.183 C 133.223 163.048,132.842 163.504,133.020 164.063 C 133.149 164.468,133.062 164.800,132.827 164.800 C 132.592 164.800,132.400 164.577,132.400 164.304 C 132.400 164.031,131.943 164.301,131.384 164.904 C 130.825 165.507,130.176 166.000,129.941 166.000 C 129.706 166.000,129.618 166.270,129.745 166.600 C 129.914 167.042,129.688 167.202,128.887 167.206 C 128.038 167.211,127.932 167.297,128.400 167.600 C 128.913 167.932,128.899 167.989,128.303 167.994 C 127.358 168.002,125.563 169.614,125.890 170.160 C 126.035 170.402,125.814 170.330,125.400 170.000 C 124.961 169.650,124.772 169.609,124.947 169.900 C 125.112 170.175,125.057 170.400,124.824 170.400 C 124.264 170.400,122.569 172.108,122.710 172.530 C 122.770 172.711,122.662 172.762,122.470 172.643 C 122.278 172.525,121.735 172.871,121.263 173.414 C 120.791 173.956,120.502 174.400,120.621 174.400 C 120.921 174.400,119.524 175.734,115.801 179.000 C 114.046 180.540,112.414 181.981,112.175 182.202 C 111.935 182.423,110.016 184.025,107.909 185.762 C 98.531 193.496,98.277 206.055,107.237 219.016 C 114.819 229.984,129.084 232.304,142.331 224.725 C 147.950 221.510,163.628 207.620,177.995 193.127 C 182.288 188.796,186.059 185.196,186.375 185.127 C 187.127 184.961,190.400 181.751,190.400 181.179 C 190.400 180.936,191.120 180.046,192.000 179.200 C 192.880 178.354,193.600 177.476,193.600 177.248 C 193.600 177.020,194.320 176.077,195.200 175.152 C 196.080 174.227,196.800 173.327,196.800 173.153 C 196.800 172.979,197.250 172.386,197.800 171.836 C 198.350 171.286,198.800 170.598,198.800 170.306 C 198.800 170.015,199.160 169.517,199.600 169.200 C 200.040 168.883,200.400 168.337,200.400 167.987 C 200.400 167.637,200.760 166.964,201.200 166.492 C 201.640 166.020,202.000 165.356,202.000 165.017 C 202.000 164.678,202.180 164.400,202.400 164.400 C 202.620 164.400,202.800 164.040,202.800 163.600 C 202.800 163.160,202.980 162.800,203.200 162.800 C 203.420 162.800,203.600 162.440,203.600 162.000 C 203.600 161.560,203.780 161.200,204.000 161.200 C 204.220 161.200,204.400 160.840,204.400 160.400 C 204.400 159.960,204.567 159.600,204.771 159.600 C 205.297 159.600,206.400 157.256,206.400 156.139 C 206.400 155.622,206.580 155.200,206.800 155.200 C 207.020 155.200,207.200 154.480,207.200 153.600 C 207.200 152.720,207.380 152.000,207.600 152.000 C 207.820 152.000,208.000 151.280,208.000 150.400 C 208.000 149.520,208.180 148.800,208.400 148.800 C 208.651 148.800,208.800 146.333,208.800 142.200 C 208.800 138.067,208.651 135.600,208.400 135.600 C 208.180 135.600,208.000 135.139,208.000 134.576 C 208.000 133.996,207.827 133.660,207.600 133.800 C 207.380 133.936,207.200 133.668,207.200 133.204 C 207.200 131.362,203.286 126.400,201.834 126.400 C 201.511 126.400,201.136 126.220,201.000 126.000 C 200.864 125.780,200.328 125.600,199.810 125.600 C 199.291 125.600,198.776 125.375,198.665 125.100 C 198.504 124.700,198.457 124.700,198.432 125.100 C 198.388 125.792,197.600 125.733,197.600 125.037 C 197.600 124.671,197.320 124.548,196.798 124.685 C 196.357 124.800,195.692 124.648,195.321 124.347 C 194.860 123.973,194.742 123.958,194.947 124.300 C 195.150 124.639,194.967 124.800,194.381 124.800 C 193.775 124.800,193.584 124.620,193.745 124.200 C 193.871 123.870,193.801 123.600,193.587 123.600 C 193.374 123.600,193.200 123.767,193.200 123.972 C 193.200 124.202,192.703 124.202,191.903 123.972 C 190.330 123.521,189.492 123.530,190.600 123.985 M335.200 129.847 C 335.200 131.055,335.079 131.262,334.463 131.101 C 333.820 130.932,333.782 131.026,334.163 131.833 L 334.599 132.758 335.052 131.879 C 335.778 130.470,336.123 128.400,335.632 128.400 C 335.394 128.400,335.200 129.051,335.200 129.847 M189.718 133.460 C 191.942 133.827,192.501 135.132,192.172 139.195 C 191.957 141.854,192.024 142.481,192.580 143.037 C 192.945 143.402,193.214 144.083,193.178 144.551 C 193.141 145.018,193.148 145.490,193.193 145.600 C 194.128 147.888,193.100 152.044,190.609 156.050 C 187.992 160.260,187.834 160.509,187.493 160.978 C 183.749 166.120,181.974 168.393,179.446 171.283 C 177.771 173.199,176.400 174.875,176.400 175.007 C 176.400 175.139,175.783 175.911,175.030 176.723 C 174.276 177.536,172.072 179.910,170.132 182.000 C 164.097 188.502,146.729 205.424,143.800 207.655 C 143.140 208.158,141.325 209.656,139.767 210.985 C 122.829 225.426,111.978 225.791,105.524 212.138 C 102.337 205.396,104.901 194.784,110.929 189.764 C 111.628 189.182,113.472 187.568,115.026 186.178 C 116.580 184.788,119.190 182.618,120.826 181.355 C 122.462 180.093,124.989 178.056,126.442 176.830 C 127.895 175.603,129.916 173.970,130.934 173.200 C 141.291 165.364,156.214 153.941,160.000 150.952 C 160.990 150.170,162.331 149.141,162.980 148.665 C 163.630 148.189,165.700 146.532,167.580 144.982 C 178.418 136.052,184.922 132.667,189.718 133.460 M332.032 136.500 C 332.012 136.935,332.291 137.200,332.771 137.200 C 333.195 137.200,333.624 137.515,333.724 137.900 C 333.862 138.427,333.919 138.377,333.954 137.700 C 333.986 137.064,333.775 136.800,333.233 136.800 C 332.812 136.800,332.376 136.575,332.265 136.300 C 332.144 136.001,332.050 136.082,332.032 136.500 M273.200 146.720 C 273.200 147.036,272.439 147.200,270.976 147.200 C 269.753 147.200,268.836 147.335,268.938 147.500 C 269.039 147.665,268.381 147.852,267.475 147.916 C 266.569 147.980,265.726 148.197,265.602 148.398 C 265.477 148.599,264.706 148.808,263.888 148.863 C 263.070 148.918,262.400 149.107,262.400 149.282 C 262.400 149.457,262.040 149.600,261.600 149.600 C 261.160 149.600,260.800 149.780,260.800 150.000 C 260.800 150.220,260.530 150.400,260.200 150.400 C 259.870 150.400,259.600 150.544,259.600 150.720 C 259.600 150.895,259.005 151.254,258.278 151.517 C 257.551 151.780,256.549 152.374,256.053 152.837 C 255.556 153.300,254.898 153.715,254.590 153.760 C 254.282 153.805,253.688 154.238,253.268 154.721 C 252.849 155.205,252.302 155.600,252.053 155.600 C 251.804 155.600,251.600 155.780,251.600 156.000 C 251.600 156.220,251.402 156.400,251.160 156.400 C 250.919 156.400,250.244 156.896,249.660 157.501 C 249.077 158.107,247.970 159.077,247.200 159.656 C 246.430 160.235,245.415 161.045,244.946 161.455 C 244.476 161.865,243.441 162.739,242.646 163.398 C 241.850 164.057,241.200 164.832,241.200 165.121 C 241.200 165.411,241.032 165.543,240.826 165.416 C 240.620 165.289,239.998 165.638,239.444 166.192 C 238.890 166.747,238.314 167.200,238.164 167.200 C 238.014 167.200,237.497 167.605,237.014 168.100 C 236.531 168.595,235.738 169.320,235.251 169.711 C 234.764 170.102,234.474 170.597,234.607 170.811 C 234.739 171.025,234.657 171.200,234.424 171.200 C 234.191 171.200,233.995 170.975,233.988 170.700 C 233.981 170.408,233.813 170.478,233.585 170.869 C 233.371 171.237,232.566 171.926,231.798 172.402 C 230.987 172.903,230.400 173.587,230.400 174.033 C 230.400 174.455,230.209 174.800,229.976 174.800 C 229.743 174.800,229.680 174.575,229.837 174.300 C 229.993 174.025,229.031 174.925,227.699 176.300 C 226.367 177.675,224.990 178.800,224.639 178.800 C 224.288 178.800,224.000 178.980,224.000 179.200 C 224.000 179.420,223.719 179.600,223.376 179.600 C 223.033 179.600,222.864 179.780,223.000 180.000 C 223.136 180.220,223.049 180.400,222.807 180.400 C 221.617 180.400,218.307 183.468,218.599 184.300 C 218.829 184.953,218.128 184.953,217.865 184.300 C 217.704 183.900,217.657 183.900,217.632 184.300 C 217.614 184.575,217.407 184.800,217.171 184.800 C 216.511 184.800,215.604 185.860,215.568 186.671 C 215.551 187.072,215.450 187.186,215.344 186.925 C 215.142 186.430,214.480 186.853,212.568 188.700 C 212.056 189.195,211.487 189.600,211.303 189.600 C 211.120 189.600,210.148 190.365,209.142 191.300 C 208.136 192.235,206.927 193.265,206.456 193.588 C 205.985 193.912,205.600 194.420,205.600 194.717 C 205.600 195.014,205.330 195.527,205.000 195.857 C 204.670 196.187,204.400 196.264,204.400 196.029 C 204.400 195.793,204.209 195.600,203.976 195.600 C 203.743 195.600,203.664 195.780,203.800 196.000 C 203.936 196.220,203.831 196.400,203.567 196.400 C 203.303 196.400,202.609 196.895,202.026 197.500 C 201.443 198.105,200.490 198.849,199.909 199.153 C 199.328 199.458,198.641 200.217,198.383 200.841 C 198.125 201.464,197.078 202.649,196.057 203.474 C 195.036 204.298,194.110 205.072,194.000 205.194 C 193.890 205.316,192.270 206.671,190.400 208.206 C 185.917 211.886,185.858 211.948,185.018 213.772 C 182.724 218.754,182.603 227.851,184.763 233.000 C 185.468 234.681,186.999 237.809,187.210 238.000 C 187.331 238.110,187.826 238.830,188.309 239.600 C 188.791 240.370,189.190 240.811,189.193 240.580 C 189.197 240.349,189.051 239.989,188.869 239.780 C 187.985 238.766,186.047 233.483,185.617 230.916 C 184.458 224.002,187.135 217.518,193.674 211.400 C 198.928 206.484,204.374 201.711,206.348 200.290 C 207.575 199.407,213.761 194.533,221.945 188.000 C 224.288 186.130,227.758 183.557,229.656 182.282 C 231.555 181.007,233.427 179.612,233.816 179.182 C 234.205 178.752,234.707 178.400,234.930 178.400 C 235.154 178.400,235.667 178.101,236.071 177.736 C 236.475 177.370,237.142 176.875,237.552 176.636 C 239.570 175.459,243.288 172.823,250.400 167.529 C 262.156 158.778,266.164 156.640,270.873 156.613 C 275.602 156.586,276.934 160.390,274.231 166.200 C 273.617 167.520,272.752 170.040,272.308 171.800 C 271.543 174.832,269.567 179.318,268.005 181.572 C 267.613 182.137,265.984 184.580,264.386 187.000 C 262.787 189.420,260.810 192.210,259.991 193.200 C 259.173 194.190,258.035 195.693,257.462 196.540 C 256.890 197.386,255.601 199.006,254.599 200.140 C 253.596 201.273,251.746 203.468,250.487 205.018 C 241.216 216.431,225.602 232.281,217.600 238.402 C 216.610 239.160,215.710 239.896,215.600 240.038 C 215.095 240.692,209.276 244.197,206.926 245.263 C 202.281 247.369,198.650 247.187,193.700 244.599 C 190.648 243.004,190.409 243.583,193.045 246.182 C 201.587 254.603,217.952 253.824,229.521 244.444 C 231.889 242.524,242.148 233.654,244.466 231.522 C 248.713 227.617,252.313 224.155,259.042 217.506 C 264.006 212.601,267.413 209.534,267.942 209.494 C 268.414 209.459,268.800 209.317,268.800 209.180 C 268.800 209.043,269.520 208.173,270.400 207.248 C 271.280 206.323,272.000 205.376,272.000 205.144 C 272.000 204.911,272.540 204.217,273.200 203.600 C 273.860 202.983,274.400 202.271,274.400 202.016 C 274.400 201.761,274.580 201.664,274.800 201.800 C 275.020 201.936,275.200 201.865,275.200 201.642 C 275.200 201.419,275.612 200.823,276.115 200.318 C 276.618 199.813,277.644 198.500,278.396 197.400 C 279.147 196.300,279.984 195.174,280.255 194.898 C 280.526 194.621,280.862 194.036,281.001 193.598 C 281.140 193.159,281.422 192.800,281.627 192.800 C 281.832 192.800,282.000 192.480,282.000 192.088 C 282.000 191.697,282.360 191.117,282.800 190.800 C 283.240 190.483,283.600 189.980,283.600 189.683 C 283.600 189.386,283.872 188.871,284.204 188.539 C 284.536 188.207,284.688 187.742,284.542 187.506 C 284.396 187.270,284.458 187.189,284.680 187.326 C 284.902 187.463,285.425 186.863,285.842 185.992 C 286.259 185.122,286.735 184.407,286.900 184.405 C 287.065 184.402,287.200 184.040,287.200 183.600 C 287.200 183.160,287.380 182.800,287.600 182.800 C 287.820 182.800,288.000 182.440,288.000 182.000 C 288.000 181.560,288.180 181.200,288.400 181.200 C 288.620 181.200,288.800 180.671,288.800 180.024 C 288.800 179.377,288.980 178.736,289.200 178.600 C 289.420 178.464,289.600 177.633,289.600 176.753 C 289.600 175.788,289.759 175.251,290.000 175.400 C 290.245 175.551,290.400 174.930,290.400 173.800 C 290.400 172.670,290.555 172.049,290.800 172.200 C 291.061 172.361,291.200 169.937,291.200 165.224 C 291.200 160.675,291.052 158.000,290.800 158.000 C 290.580 158.000,290.400 157.460,290.400 156.800 C 290.400 156.140,290.220 155.600,290.000 155.600 C 289.780 155.600,289.600 155.240,289.600 154.800 C 289.600 154.360,289.420 154.000,289.200 154.000 C 288.980 154.000,288.794 153.685,288.787 153.300 C 288.775 152.631,287.095 150.400,286.602 150.400 C 286.473 150.400,285.980 150.040,285.508 149.600 C 285.036 149.160,284.233 148.800,283.725 148.800 C 283.216 148.800,282.800 148.620,282.800 148.400 C 282.800 148.180,282.035 147.997,281.100 147.994 C 279.855 147.989,279.561 147.884,280.000 147.600 C 280.426 147.324,279.944 147.210,278.333 147.206 C 276.899 147.202,275.993 147.016,275.865 146.700 C 275.704 146.300,275.657 146.300,275.632 146.700 C 275.591 147.337,274.310 147.350,273.680 146.720 C 273.307 146.347,273.200 146.347,273.200 146.720 M328.800 151.224 C 328.800 151.457,328.968 151.544,329.172 151.417 C 329.377 151.291,329.658 151.370,329.796 151.593 C 329.934 151.817,330.239 152.000,330.473 152.000 C 330.741 152.000,330.714 151.778,330.400 151.400 C 329.827 150.710,328.800 150.597,328.800 151.224 M325.600 165.153 C 325.600 165.348,325.970 165.604,326.423 165.722 C 327.098 165.898,327.161 165.835,326.774 165.369 C 326.246 164.732,325.600 164.614,325.600 165.153 M326.518 168.327 C 326.213 168.515,326.171 168.830,326.401 169.201 C 326.822 169.883,325.788 171.247,325.062 170.968 C 324.807 170.871,324.353 171.198,324.052 171.695 C 323.627 172.400,323.623 172.489,324.033 172.100 C 324.824 171.349,325.600 171.498,325.600 172.400 C 325.600 172.918,325.333 173.200,324.843 173.200 C 324.426 173.200,323.986 173.461,323.863 173.780 C 323.715 174.167,323.833 174.285,324.220 174.137 C 325.315 173.717,324.911 175.821,323.800 176.327 C 323.250 176.578,322.814 177.102,322.832 177.491 C 322.850 177.910,322.946 177.996,323.065 177.700 C 323.388 176.899,324.000 177.123,324.000 178.043 C 324.000 178.619,323.814 178.814,323.414 178.661 C 322.956 178.485,322.847 178.760,322.914 179.918 C 322.972 180.925,322.840 181.368,322.500 181.300 C 322.225 181.245,322.000 181.380,322.000 181.600 C 322.000 181.820,321.595 181.987,321.100 181.972 C 320.240 181.945,320.235 181.928,321.000 181.593 C 321.658 181.304,321.573 181.253,320.528 181.304 C 319.828 181.338,319.264 181.464,319.275 181.583 C 319.365 182.573,319.103 183.200,318.600 183.200 C 318.270 183.200,318.000 183.380,318.000 183.600 C 318.000 183.820,317.820 184.000,317.600 184.000 C 317.380 184.000,317.200 183.719,317.200 183.376 C 317.200 183.033,317.013 182.869,316.784 183.010 C 316.555 183.152,316.464 183.570,316.581 183.941 C 316.718 184.371,316.406 184.901,315.719 185.407 C 313.991 186.681,312.522 188.340,311.994 189.615 C 311.724 190.267,311.345 190.800,311.151 190.800 C 310.958 190.800,310.800 190.980,310.800 191.200 C 310.800 191.984,311.565 191.573,313.668 189.658 C 315.782 187.732,319.289 185.600,320.341 185.600 C 321.666 185.600,325.566 183.078,326.129 181.858 C 327.407 179.087,327.738 167.573,326.518 168.327 M311.700 186.998 C 310.957 187.842,311.094 188.073,312.000 187.507 C 312.440 187.232,312.800 186.871,312.800 186.704 C 312.800 186.227,312.249 186.375,311.700 186.998 M300.318 221.980 C 300.161 223.050,300.256 223.200,301.096 223.200 C 301.904 223.200,302.033 223.029,301.927 222.103 C 301.743 220.514,300.546 220.422,300.318 221.980 M288.493 346.000 C 288.218 346.440,288.131 346.800,288.300 346.800 C 288.469 346.800,288.832 346.440,289.107 346.000 C 289.382 345.560,289.469 345.200,289.300 345.200 C 289.131 345.200,288.768 345.560,288.493 346.000 " stroke="none" fill="#9c5087" fill-rule="evenodd"></path><path id="path2" d="M118.789 174.713 C 118.025 175.302,117.340 175.923,117.267 176.092 C 117.193 176.262,116.788 176.400,116.367 176.400 C 115.945 176.400,115.600 176.580,115.600 176.800 C 115.600 177.020,115.274 177.200,114.875 177.200 C 114.477 177.200,113.764 177.560,113.292 178.000 C 112.820 178.440,112.156 178.800,111.817 178.800 C 111.478 178.800,111.200 178.980,111.200 179.200 C 111.200 179.420,110.975 179.601,110.700 179.602 C 110.425 179.603,109.625 180.143,108.922 180.802 C 108.219 181.461,107.430 182.000,107.169 182.000 C 106.907 182.000,106.358 182.388,105.947 182.861 C 105.536 183.335,105.197 183.560,105.194 183.361 C 105.190 183.163,104.695 183.549,104.094 184.220 C 103.492 184.891,102.417 185.677,101.705 185.966 C 100.993 186.256,100.509 186.652,100.629 186.846 C 100.749 187.041,100.648 187.200,100.405 187.200 C 100.162 187.200,99.514 187.650,98.964 188.200 C 98.414 188.750,97.829 189.200,97.665 189.200 C 97.501 189.200,96.699 189.830,95.882 190.600 C 95.066 191.370,94.219 192.000,93.999 192.000 C 93.780 192.000,93.600 192.180,93.600 192.400 C 93.600 192.620,93.388 192.800,93.128 192.800 C 92.868 192.800,91.902 193.610,90.980 194.600 C 90.058 195.590,89.086 196.400,88.820 196.400 C 88.555 196.400,87.646 197.120,86.800 198.000 C 85.954 198.880,85.151 199.600,85.015 199.600 C 84.878 199.600,84.380 199.960,83.908 200.400 C 83.436 200.840,82.813 201.200,82.525 201.200 C 82.236 201.200,82.000 201.500,82.000 201.867 C 82.000 202.233,81.899 202.432,81.776 202.309 C 81.652 202.186,81.135 202.471,80.626 202.942 C 77.398 205.933,76.289 206.779,75.908 206.543 C 75.651 206.385,75.592 206.464,75.762 206.738 C 75.931 207.012,75.793 207.200,75.424 207.200 C 75.081 207.200,74.800 207.458,74.800 207.773 C 74.800 208.088,74.395 208.474,73.900 208.630 C 73.405 208.787,72.754 209.264,72.453 209.692 C 72.153 210.119,71.388 210.784,70.754 211.170 C 70.119 211.555,68.888 212.530,68.018 213.335 C 67.147 214.141,66.287 214.800,66.106 214.800 C 65.925 214.800,65.517 215.160,65.200 215.600 C 64.883 216.040,64.475 216.400,64.294 216.400 C 64.112 216.400,63.530 216.805,63.000 217.300 C 62.470 217.795,61.464 218.650,60.764 219.200 C 60.064 219.750,59.074 220.605,58.564 221.100 C 58.054 221.595,57.476 222.000,57.280 222.000 C 57.084 222.000,56.581 222.383,56.162 222.852 C 55.743 223.320,54.770 224.115,54.000 224.618 C 53.230 225.120,51.835 226.267,50.899 227.166 C 49.964 228.065,49.026 228.800,48.815 228.800 C 48.604 228.800,47.718 229.520,46.847 230.400 C 45.976 231.280,45.082 232.000,44.860 232.000 C 44.639 232.000,44.104 232.450,43.671 233.000 C 43.239 233.550,42.725 234.000,42.529 234.000 C 42.125 234.000,40.174 235.568,38.173 237.500 C 37.433 238.215,36.540 238.800,36.190 238.800 C 35.839 238.800,35.640 238.941,35.746 239.113 C 35.853 239.285,35.278 239.868,34.470 240.408 C 33.661 240.947,32.709 241.707,32.353 242.095 C 31.997 242.483,31.502 242.800,31.253 242.800 C 31.004 242.800,30.800 243.070,30.800 243.400 C 30.800 243.730,30.648 243.955,30.461 243.900 C 30.275 243.845,29.600 244.340,28.961 245.000 C 28.323 245.660,27.305 246.455,26.700 246.768 C 26.095 247.080,25.600 247.487,25.600 247.673 C 25.600 247.858,24.595 248.653,23.367 249.438 C 21.127 250.871,18.000 253.790,18.000 254.448 C 18.000 254.642,17.728 254.800,17.396 254.800 C 17.064 254.800,16.228 255.340,15.537 256.000 C 14.846 256.660,14.038 257.200,13.741 257.200 C 13.443 257.200,13.200 257.380,13.200 257.600 C 13.200 257.820,12.919 258.000,12.576 258.000 C 12.233 258.000,12.064 258.180,12.200 258.400 C 12.336 258.620,12.156 258.800,11.800 258.800 C 11.444 258.800,11.264 258.980,11.400 259.200 C 11.536 259.420,11.367 259.600,11.024 259.600 C 10.681 259.600,10.400 259.780,10.400 260.000 C 10.400 260.220,10.192 260.400,9.939 260.400 C 9.341 260.400,5.222 264.289,5.513 264.579 C 5.634 264.701,5.474 264.800,5.158 264.800 C 4.841 264.800,3.956 265.312,3.191 265.939 C 2.426 266.565,1.395 267.291,0.900 267.553 L 0.000 268.028 0.000 334.014 L 0.000 400.000 120.200 400.000 C 186.310 400.000,240.400 399.847,240.400 399.659 C 240.400 399.472,240.940 398.754,241.600 398.063 C 242.260 397.372,242.800 396.712,242.800 396.597 C 242.800 396.481,243.970 395.272,245.400 393.910 C 246.830 392.548,248.000 391.245,248.000 391.013 C 248.000 390.782,248.360 390.368,248.800 390.093 C 249.240 389.818,249.600 389.325,249.600 388.997 C 249.600 388.668,249.773 388.400,249.984 388.400 C 250.660 388.400,255.199 383.265,255.200 382.500 C 255.200 382.225,255.364 382.000,255.565 382.000 C 256.221 382.000,262.800 375.064,262.800 374.372 C 262.800 374.192,263.340 373.726,264.000 373.336 C 265.059 372.711,265.327 372.348,265.283 371.600 C 265.276 371.490,265.880 370.950,266.625 370.400 C 267.369 369.850,267.983 369.261,267.989 369.090 C 267.995 368.920,269.080 367.680,270.400 366.335 C 271.720 364.991,272.800 363.732,272.800 363.539 C 272.800 363.346,274.324 361.685,276.186 359.847 C 278.049 358.010,279.491 356.424,279.390 356.324 C 279.290 356.223,280.646 354.636,282.404 352.796 C 284.162 350.956,285.600 349.334,285.600 349.193 C 285.600 349.051,286.058 348.690,286.618 348.390 C 287.178 348.091,287.918 347.250,288.263 346.523 C 288.609 345.795,289.171 345.200,289.512 345.200 C 289.854 345.200,290.022 345.088,289.885 344.952 C 289.748 344.815,290.888 343.466,292.418 341.954 C 293.948 340.443,295.200 339.014,295.200 338.779 C 295.200 338.545,295.408 338.481,295.662 338.638 C 295.935 338.807,296.016 338.749,295.859 338.495 C 295.713 338.260,296.105 337.557,296.729 336.933 C 297.353 336.309,297.985 335.316,298.132 334.727 C 298.280 334.138,298.671 333.386,299.001 333.057 C 299.330 332.727,299.600 332.233,299.600 331.960 C 299.600 331.687,299.900 331.132,300.267 330.726 C 300.633 330.321,300.986 329.500,301.049 328.901 C 301.113 328.302,301.353 327.749,301.583 327.672 C 301.812 327.596,302.000 327.019,302.000 326.390 C 302.000 325.762,302.180 325.136,302.400 325.000 C 302.620 324.864,302.800 324.213,302.800 323.553 C 302.800 322.883,302.971 322.458,303.186 322.592 C 303.431 322.743,303.573 318.865,303.573 312.000 C 303.573 305.135,303.431 301.257,303.186 301.408 C 302.962 301.547,302.800 300.966,302.800 300.024 C 302.800 299.131,302.620 298.400,302.400 298.400 C 302.180 298.400,302.000 297.950,302.000 297.400 C 302.000 296.850,301.820 296.400,301.600 296.400 C 301.380 296.400,301.200 295.918,301.200 295.328 C 301.200 294.034,300.364 291.600,299.920 291.600 C 299.744 291.600,299.600 291.162,299.600 290.627 C 299.600 289.662,298.256 288.807,297.670 289.400 C 289.522 297.640,273.685 312.589,267.393 317.980 C 262.226 322.407,255.782 326.229,252.200 326.990 C 231.154 331.460,214.062 313.800,219.420 293.122 C 220.272 289.835,220.163 289.852,215.924 293.659 C 213.876 295.498,211.127 297.903,209.816 299.002 C 208.505 300.101,206.806 301.581,206.041 302.292 C 204.690 303.547,203.753 303.830,204.852 302.651 C 205.631 301.816,210.987 296.161,213.650 293.364 C 214.888 292.064,217.617 289.423,219.715 287.496 C 221.813 285.568,224.401 282.895,225.465 281.556 C 227.480 279.021,228.105 278.382,241.678 264.997 C 247.944 258.818,250.521 256.548,252.278 255.658 C 256.452 253.546,264.243 245.053,267.122 239.477 C 268.470 236.867,268.800 236.471,269.130 237.061 C 269.423 237.585,269.354 237.898,268.863 238.276 C 268.280 238.723,268.272 238.833,268.800 239.186 C 269.203 239.456,269.236 239.590,268.900 239.594 C 268.615 239.597,268.400 240.105,268.400 240.776 C 268.400 241.423,268.220 242.064,268.000 242.200 C 267.382 242.582,267.527 243.600,268.200 243.600 C 268.533 243.600,268.800 243.244,268.800 242.800 C 268.800 242.360,268.980 242.000,269.200 242.000 C 269.420 242.000,269.600 241.676,269.600 241.280 C 269.600 240.884,269.774 240.386,269.987 240.173 C 270.199 239.961,270.417 239.205,270.472 238.493 C 270.526 237.782,270.696 237.200,270.850 237.200 C 271.191 237.200,271.090 236.380,270.665 235.700 C 270.489 235.418,270.538 235.200,270.776 235.200 C 271.384 235.200,271.312 231.712,270.700 231.465 C 270.425 231.354,270.605 231.249,271.100 231.232 C 272.081 231.197,272.579 220.400,271.600 220.400 C 271.375 220.400,271.200 219.275,271.200 217.824 C 271.200 216.407,271.020 215.136,270.800 215.000 C 270.580 214.864,270.400 214.303,270.400 213.753 C 270.400 213.188,270.226 212.860,270.000 213.000 C 269.773 213.140,269.600 212.804,269.600 212.224 C 269.600 211.661,269.433 211.200,269.228 211.200 C 269.023 211.200,268.798 210.795,268.728 210.300 C 268.481 208.560,267.011 209.657,259.000 217.560 C 252.308 224.162,248.684 227.644,244.466 231.522 C 242.148 233.654,231.889 242.524,229.521 244.444 C 219.749 252.367,207.906 254.220,197.726 249.419 C 186.211 243.989,179.619 225.498,185.018 213.772 C 185.856 211.951,185.910 211.895,190.398 208.199 C 197.128 202.655,198.400 201.484,198.400 200.831 C 198.400 200.594,198.130 200.400,197.800 200.400 C 197.470 200.400,197.200 200.580,197.200 200.800 C 197.200 201.020,196.868 201.200,196.462 201.200 C 196.056 201.200,195.398 201.560,195.000 202.000 C 194.602 202.440,194.028 202.800,193.725 202.800 C 193.423 202.800,193.072 203.069,192.946 203.398 C 192.513 204.526,192.000 203.551,192.000 201.600 C 192.000 200.526,191.820 199.536,191.600 199.400 C 191.380 199.264,191.200 198.094,191.200 196.800 C 191.200 195.506,191.020 194.336,190.800 194.200 C 190.580 194.064,190.400 193.511,190.400 192.971 C 190.400 192.431,190.241 191.677,190.047 191.295 C 189.852 190.913,189.471 190.060,189.200 189.400 C 188.929 188.740,188.548 187.887,188.353 187.505 C 188.159 187.123,188.000 186.582,188.000 186.302 C 188.000 186.022,187.621 185.556,187.158 185.267 C 186.370 184.775,185.801 185.261,178.249 192.871 C 163.514 207.719,147.988 221.489,142.331 224.725 C 124.760 234.778,106.531 227.022,101.614 207.400 C 99.311 198.207,101.360 191.163,107.909 185.762 C 110.016 184.025,111.935 182.423,112.175 182.202 C 112.414 181.981,114.046 180.540,115.801 179.000 C 120.303 175.050,120.754 174.573,120.449 174.079 C 120.272 173.793,119.696 174.013,118.789 174.713 M267.300 244.265 C 267.025 244.376,266.800 244.887,266.800 245.400 C 266.800 245.913,266.640 246.393,266.444 246.467 C 266.249 246.540,265.664 247.347,265.144 248.260 C 264.625 249.173,262.940 251.044,261.400 252.419 C 259.860 253.794,257.244 256.197,255.587 257.759 C 252.758 260.426,243.999 268.432,243.633 268.685 C 243.542 268.748,243.569 268.903,243.695 269.028 C 243.820 269.154,244.745 268.434,245.751 267.428 C 246.756 266.423,247.687 265.600,247.818 265.600 C 247.950 265.600,248.293 265.375,248.582 265.100 C 248.870 264.825,249.802 264.033,250.653 263.340 C 251.504 262.646,252.591 261.746,253.069 261.340 C 265.841 250.475,268.947 247.540,267.921 247.305 C 267.292 247.161,267.297 247.051,267.993 245.813 C 268.887 244.221,268.661 243.716,267.300 244.265 " stroke="none" fill="#f6cc52" fill-rule="evenodd"></path></g></svg>